/* XPM */
static const char * mitkCutTool_xpm[] = {
/* width height num_colors chars_per_pixel */
"    48    48      256            2",
/* colors */
"`` c #a40204",
"`. c #8c8a84",
"`# c #bcc2bc",
"`a c #bc4244",
"`b c #dce2dc",
"`c c #ac2224",
"`d c #cc827c",
"`e c #cc7274",
"`f c #d42a2c",
"`g c #ecc2c4",
"`h c #a4a69c",
"`i c #e44244",
"`j c #f4f2ec",
"`k c #cca2a4",
"`l c #cc1614",
"`m c #ac1214",
"`n c #dcd6d4",
"`o c #f4e6e4",
"`p c #d43634",
"`q c #ccbabc",
"`r c #949a94",
"`s c #bc3234",
"`t c #b4b6b4",
"`u c #ec4e4c",
"`v c #a4524c",
"`w c #cccecc",
"`x c #c42624",
"`y c #eceae4",
"`z c #ac1a1c",
"`A c #ecdadc",
"`B c #ec2624",
"`C c #e4b2b4",
"`D c #bc5254",
"`E c #8c928c",
"`F c #acaea4",
"`G c #f44244",
"`H c #a40a0c",
"`I c #d4c2c4",
"`J c #ece2e4",
"`K c #b42a2c",
"`L c #dccacc",
"`M c #fcfafc",
"`N c #dca2a4",
"`O c #f43634",
"`P c #f49a9c",
"`Q c #ec4a4c",
"`R c #dcdedc",
"`S c #f4eeec",
"`T c #e43e3c",
"`U c #a4a29c",
"`V c #bcbebc",
"`W c #f45654",
"`X c #bc1e1c",
"`Y c #e4babc",
"`Z c #c4cac4",
"`0 c #e4e2dc",
"`1 c #cc8e8c",
"`2 c #d43234",
"`3 c #acaaa4",
"`4 c #ec4244",
"`5 c #fcf2f4",
"`6 c #d4aaac",
"`7 c #b41214",
"`8 c #dc3e3c",
".` c #9ca29c",
".. c #bcbab4",
".# c #f44e4c",
".a c #b45254",
".b c #d4d6cc",
".c c #cc2e2c",
".d c #b41a1c",
".e c #f4dedc",
".f c #ec2e2c",
".g c #bc5a5c",
".h c #94928c",
".i c #eccacc",
".j c #ac0604",
".k c #8c8e84",
".l c #c4c2bc",
".m c #c44e4c",
".n c #bc2224",
".o c #d47a7c",
".p c #f4f6f4",
".q c #d4a29c",
".r c #dcdad4",
".s c #fceaec",
".t c #dc3634",
".u c #d4babc",
".v c #9c9a94",
".w c #cc2a2c",
".x c #eceeec",
".y c #f4d6d4",
".z c #b4b2ac",
".A c #ac0a0c",
".B c #bc2e2c",
".C c #ecbebc",
".D c #e4e6e4",
".E c #c45a5c",
".F c #94968c",
".G c #a40604",
".H c #bc4644",
".I c #d48684",
".J c #cc7674",
".K c #d42e2c",
".L c #ecc6c4",
".M c #a4a6a4",
".N c #e44644",
".O c #f4f2f4",
".P c #d41e1c",
".Q c #ac1614",
".R c #f4eaec",
".S c #bc3a3c",
".T c #b4bab4",
".U c #ec5254",
".V c #a45654",
".W c #d4d2cc",
".X c #c42a2c",
".Y c #eceaec",
".Z c #ac1e1c",
".0 c #ec2a2c",
".1 c #e4b6b4",
".2 c #acaeac",
".3 c #f44a4c",
".4 c #cccac4",
".5 c #ece6e4",
".6 c #b42e2c",
".7 c #dccecc",
".8 c #fcfefc",
"#` c #e4aeac",
"#. c #d49694",
"## c #e4dedc",
"#a c #fceeec",
"#b c #dc3234",
"#c c #f45254",
"#d c #ec3234",
"#e c #c4c6c4",
"#f c #d4a6a4",
"#g c #dc3a3c",
"#h c #9c9e9c",
"#i c #f4dadc",
"#j c #e4bebc",
"#k c #ec4644",
"#l c #b41614",
"#m c #b45654",
"#n c #b41e1c",
"#o c #bc5e5c",
"#p c #eccecc",
"#q c #bc2624",
"#r c #d4bebc",
"#s c #ac0e0c",
"#t c #e4e2e4",
"#u c #acaaac",
"#v c #bcbabc",
"#w c #d4d6d4",
"#x c #8c8e8c",
"#y c #dcdadc",
"#z c #949694",
"#A c #000000",
"#B c #000000",
"#C c #000000",
"#D c #000000",
"#E c #000000",
"#F c #000000",
"#G c #000000",
"#H c #000000",
"#I c #000000",
"#J c #000000",
"#K c #000000",
"#L c #000000",
"#M c #000000",
"#N c #000000",
"#O c #000000",
"#P c #000000",
"#Q c #000000",
"#R c #000000",
"#S c #000000",
"#T c #000000",
"#U c #000000",
"#V c #000000",
"#W c #000000",
"#X c #000000",
"#Y c #000000",
"#Z c #000000",
"#0 c #000000",
"#1 c #000000",
"#2 c #000000",
"#3 c #000000",
"#4 c #000000",
"#5 c #000000",
"#6 c #000000",
"#7 c #000000",
"#8 c #000000",
"a` c #000000",
"a. c #000000",
"a# c #000000",
"aa c #000000",
"ab c #000000",
"ac c #000000",
"ad c #000000",
"ae c #000000",
"af c #000000",
"ag c #000000",
"ah c #000000",
"ai c #000000",
"aj c #000000",
"ak c #000000",
"al c #000000",
"am c #000000",
"an c #000000",
"ao c #000000",
"ap c #000000",
"aq c #000000",
"ar c #000000",
"as c #000000",
"at c #000000",
"au c #000000",
"av c #000000",
"aw c #000000",
"ax c #000000",
"ay c #000000",
"az c #000000",
"aA c #000000",
"aB c #000000",
"aC c #000000",
"aD c #000000",
"aE c #000000",
"aF c #000000",
"aG c #000000",
"aH c #000000",
"aI c #000000",
"aJ c #000000",
"aK c #000000",
"aL c #000000",
"aM c #000000",
"aN c #000000",
"aO c #000000",
"aP c #000000",
"aQ c #000000",
"aR c #000000",
"aS c #000000",
"aT c #000000",
"aU c #000000",
"aV c #000000",
"aW c #000000",
"aX c #000000",
"aY c #000000",
"aZ c #000000",
"a0 c #000000",
"a1 c #000000",
"a2 c #000000",
"a3 c #000000",
"a4 c #000000",
"a5 c #000000",
"a6 c #000000",
"a7 c #000000",
"a8 c #000000",
/* pixels */
".8.8.8.8.8.8.8.8.8.8.8.8.8.8.8.8.8.8.8.8.8.8.8.8.8.8.8.8.8.8.8.8.8.8.8.8.8.8.8.8.8.8.8.8.8.8.8.8",
".8.8.8.8.8.8.8.8.8.8.8.8.8.8.8.8.8.8.8.8.8.8.8.8.8.8.8.8.8.8.8.8.8.8.8.8.8.8.8.8.8.8.8.8.8.8.8.8",
".8.8.8.8.8.8.8.8.8.8.8.8.8.8.8.8.8.8.8.8.8.8.8.8.8.8.8.8.8.8.8.8.8.8.8.8.8.8.8.8.8.8.8.8.8.8.8.8",
".8.8.8.8.8.8.8.8.8.8.8.8.8.8.8.8.8.8.8.8.8.8.8.8.8.8.8.8.8.8.8.8.8.8.8.8.8.8.8.8.8.8.8.8.8.8.8.8",
".8.8.8.8.8.8.8.8.8.8.8.8.8.8.8.8.8.8.8.8.8.8.8.8.8.8.8.8.8.8.8.8.8.8.8.8.8.8.8.8.8.8.8.8.8.8.8.8",
".8.8.8.8.8.8.8.8.8.8.8.8.8.8.8.8.8.8.8.8.8.8.8.8.8.8.8.8.8.8.8.8.8.8.8.8.8.8.8.8.8.8.8.8.8.8.8.8",
".8.8.8.8.8.8.8.8.8.8.8.8.8.8.8.8.8.8.8.8.8.8.8.8.8.8.8.8.8.8.8.8.O.8.8.8.8.8.8.8.8.8.8.8.8.8.8.8",
".8.8.8.8.8.8.8.8.8.8.8.8.8.8.8.8.4.8.8.8.8.8.8.8.8.8.8.8.8.8.8.O`..O.8.8.8.8.8.8.8.8.8.8.8.8.8.8",
".8.8.8.8.8.8.8.8.8.8.8.8.8.8.8`n`.`R.8.8.8.8.8.8.8.8.8.8.8.8.8`V`E...8.8.8.8.8.8.8.8.8.8.8.8.8.8",
".8.8.8.8.8.8.8.8.8.8.8.8.8.8.8#h#v.`.8.8.8.8.8.8.8.8.8.8.8.8.O.F.Y#z`M.8.8.8.8.8.8.8.8.8.8.8.8.8",
".8.8.8.8.8.8.8.8.8.8.8.8.8.8.x#h.O.M##.8.8.8.8.8.8.8.8.8.8.8#v`w.p..`R.8.8.8.8.8.8.8.8.8.8.8.8.8",
".8.8.8.8.8.8.8.8.8.8.8.8.8.8`w.4.O`b`U.8.8.8.8.8.8.8.8.8.8.O.F`j.O.r`V.8.8.8.8.8.8.8.8.8.8.8.8.8",
".8.8.8.8.8.8.8.8.8.8.8.8.8.8#u##`j.O.M`R.8.8.8.8.8.8.8.8.8..`w.O.x##.`.8.8.8.8.8.8.8.8.8.8.8.8.8",
".8.8.8.8.8.8.8.8.8.8.8.8.8.8.v`b`S.O`0.`.8.8.8.8.8.8.8.8.O#z`j.x.Y`0.h.8.8.8.8.8.8.8.8.8.8.8.8.8",
".8.8.8.8.8.8.8.8.8.8.8.8.8.8`E`0.D`S.p.M##.8.8.8.8.8.8.8..`w.O`S.r#t`E.8.8.8.8.8.8.8.8.8.8.8.8.8",
".8.8.8.8.8.8.8.8.8.8.8.8.8.8#x#t.r.x`j`R.`.8.8.8.8.8.8.O#z`j.x.D`n.D.k.8.8.8.8.8.8.8.8.8.8.8.8.8",
".8.8.8.8.8.8.8.8.8.8.8.8.8.8#x`J`n##.x`5.M`R.8.8.8.8.8..`w.O.x`n.r.r.v.8.8.8.8.8.8.8.8.8.8.8.8.8",
".8.8.8.8.8.8.8.8.8.8.8.8.8.8`U.b.r`n`y`j`0.`.8.8.8.8`S#z`j`j##.b###e`V.8.8.8.8.8.8.8.8.8.8.8.8.8",
".8.8.8.8.8.8.8.8.8.8.8.8.8.8`Z..`0.b.r.x.p.M`R.8.8.8`t`w.O.D`n`n.D.v`y.8.8.8.8.8.8.8.8.8.8.8.8.8",
".8.8.8.8.8.8.8.8.8.8.8.8.8.8`M`E##.r`n.D`j#t#h.8.8.O#z`j`j.r`n`R.4`F.8.8.8.8.8.8.8.8.8.8.8.8.8.8",
".8.8.8.8.8.8.8.8.8.8.8.8.8.8.8.l..#t`n`n.x`j`3`R.8`t.W.O`0`n.r`0.F.Y.8.8.8.8.8.8.8.8.8.8.8.8.8.8",
".8.8.8.8.8.8.8.8.8.8.8.8.8.8.8.p`E.r`R`n##`j#t#h.x#z.O.x`n.b.D`t`t.8.8.8.8.8.8.8.8.8.8.8.8.8.8.8",
".8.8.8.8.8.8.8.8.8.8.8.8.8.8.8.8#w`U`0.r.b`y.p.M`3.W.O`R`n##.W.F`M.8.8.8.8.8.8.8.8.8.8.8.8.8.8.8",
".8.8.8.8.8.8.8.8.8.8.8.8.8.8.8.8.8#u`V`0`n.r`y`V.h.O`y`n.r`0`r`R.8.8.8.8.8.8.8.8.8.8.8.8.8.8.8.8",
".8.8.8.8.8.8.8.8.8.8.8.8.8.8.8.8.8.p.h.b##.b`n.M.W.O.r`n.D`3...8.8.8.8.8.8.8.8.8.8.8.8.8.8.8.8.8",
".8.8.8.8.8.8.8.8.8.8.8.8.8.8.8.8.8.8#t#z##.r..#z.O`0#w`0#e#h.8.8.8.8.8.8.8.8.8.8.8.8.8.8.8.8.8.8",
".8.8.8.8.8.8.8.8.8.8.8.8.8.8.8.8.8.8.8`Z.M`0.`#e`V.4`0.b.h.x.8.8.8.8.8.8.8.8.8.8.8.8.8.8.8.8.8.8",
".8.8.8.8.8.8.8.8.8.8.8.8.8.8.8.8.8.8.8.8.z`3#z.8.O#h.r.F`R.8.8.8.8.8.8.8.8.8.8.8.8.8.8.8.8.8.8.8",
".8.8.8.8.8.8.8.8.8.8.8.8.8.8.8.8.8.8.8.8.8#z`V`w.D.F.v.T.8.8.8.8.8.8.8.8.8.8.8.8.8.8.8.8.8.8.8.8",
".8.8.8.8.8.8.8.8.8.8.8.8.8`5.o.Q``````````.V`j.z`U.`.z`v``````````.d.J`5.8.8.8.8.8.8.8.8.8.8.8.8",
".8.8.8.8.8.8.8.8.8.8.8.8.s#n.n.N.#.U.#.U.N#s`d#t`t`U`e.A.N.U.#.U`u`i.n#n.s.8.8.8.8.8.8.8.8.8.8.8",
".8.8.8.8.8.8.8.8.8.8.8.8.S.c`P.n.A.A.G.G`G`Q`m.a.k#o`m`P`4``````.G.n`Q.c.S.8.8.8.8.8.8.8.8.8.8.8",
".8.8.8.8.8.8.8.8.8.8.8`C`X`Q`7.J#i.e#p``.0#c`p``.7```p`W`B``#a#a`o.I`m`u`X`C.8.8.8.8.8.8.8.8.8.8",
".8.8.8.8.8.8.8.8.8.8.8`a.t.c.E.8.8.8`5```O`u#s.q.8.q#s`u#d``.8.8.8.8.E.K`p`a.8.8.8.8.8.8.8.8.8.8",
".8.8.8.8.8.8.8.8.8.8.8#s.N.n`Y.8.8.8`5``.3.w.m.8.8.8.m.w#k.G.8.8.8.8`Y`X`Q#s.8.8.8.8.8.8.8.8.8.8",
".8.8.8.8.8.8.8.8.8.8.8```u#s.y.8.8.8#a``#c#s#p.8.8`M#p`m`u.j.8.8.8.8.y#s.U``.8.8.8.8.8.8.8.8.8.8",
".8.8.8.8.8.8.8.8.8.8.8.A`u.d`g.8.8.8.L#l`u.G.O`M.O.p`S```u#s#i.8.8.8.C.d`Q.A.8.8.8.8.8.8.8.8.8.8",
".8.8.8.8.8.8.8.8.8.8.8.B`8`f.6`g#i#``z#b.t`K.O.x.x.Y.x`K.t`2.Z`N.i.1.6`f`8.B.8.8.8.8.8.8.8.8.8.8",
".8.8.8.8.8.8.8.8.8.8.8.I`x.3`X`7.G`7.P.#`X#..x.x.Y.D.D`1`X.#.P`7.A`7`l.3`x.I.8.8.8.8.8.8.8.8.8.8",
".8.8.8.8.8.8.8.8.8.8.8.R`m`T.3`O.f`O.3`2`c##.Y.x.x.Y.Y#t#n`2.3`O.f`O.3`8`m#t`5.8.8.8.8.8.8.8.8.8",
".8.8.8.8.8.8.8.8.8.8`M.x`6.G.w`i`Q.N.X`H.u`R.Y.O.O.p`S.D#r#s.X.N`u`i.X.A`k.D.x`M.8.8.8.8.8.8.8.8",
".8.8.8.8.8.8.8.8.8.8.8.O.Y#r.a.Q.G`m#m`I`R.Y.x.8.8`M.8.x.D`L.g`m.G.Q.a`q`R.Y.O.8.8.8.8.8.8.8.8.8",
".8.8.8.8.8.8.8.8.8.8.8.8`M.x.Y.D#t.D.D.Y.x`M.8.8.8.8.8.8`M.x.Y.D#t#t.D.Y`S.p.8.8.8.8.8.8.8.8.8.8",
".8.8.8.8.8.8.8.8.8.8.8.8.8.8.8.8.8.8.8.8.8.8.8.8.8.8.8.8.8.8.8.8.8.8.8.8.8.8.8.8.8.8.8.8.8.8.8.8",
".8.8.8.8.8.8.8.8.8.8.8.8.8.8.8.8.8.8.8.8.8.8.8.8.8.8.8.8.8.8.8.8.8.8.8.8.8.8.8.8.8.8.8.8.8.8.8.8",
".8.8.8.8.8.8.8.8.8.8.8.8.8.8.8.8.8.8.8.8.8.8.8.8.8.8.8.8.8.8.8.8.8.8.8.8.8.8.8.8.8.8.8.8.8.8.8.8",
".8.8.8.8.8.8.8.8.8.8.8.8.8.8.8.8.8.8.8.8.8.8.8.8.8.8.8.8.8.8.8.8.8.8.8.8.8.8.8.8.8.8.8.8.8.8.8.8",
".8.8.8.8.8.8.8.8.8.8.8.8.8.8.8.8.8.8.8.8.8.8.8.8.8.8.8.8.8.8.8.8.8.8.8.8.8.8.8.8.8.8.8.8.8.8.8.8"
};
