/* XPM */
static const char * cursor_hand_open_xpm[] = {
"24 24 118 2",
"  	c None",
". 	c #B0B0B0",
"+ 	c #484848",
"@ 	c #303030",
"# 	c #333333",
"$ 	c #696969",
"% 	c #555555",
"& 	c #868686",
"* 	c #3C3C3C",
"= 	c #535353",
"- 	c #999999",
"; 	c #909090",
"> 	c #373737",
", 	c #4E4E4E",
"' 	c #2E2E2E",
") 	c #5B5B5B",
"! 	c #646464",
"~ 	c #242424",
"{ 	c #393939",
"] 	c #232323",
"^ 	c #606060",
"/ 	c #989898",
"( 	c #FEFEFE",
"_ 	c #FFFFFF",
": 	c #9B9B9B",
"< 	c #2D2D2D",
"[ 	c #202020",
"} 	c #585858",
"| 	c #E3E3E3",
"1 	c #2F2F2F",
"2 	c #7D7D7D",
"3 	c #BFBFBF",
"4 	c #6A6A6A",
"5 	c #959595",
"6 	c #212121",
"7 	c #F9F9F9",
"8 	c #BEBEBE",
"9 	c #252525",
"0 	c #2A2A2A",
"a 	c #1D1D1D",
"b 	c #4D4D4D",
"c 	c #272727",
"d 	c #A2A2A2",
"e 	c #A9A9A9",
"f 	c #292929",
"g 	c #949494",
"h 	c #1C1C1C",
"i 	c #4C4C4C",
"j 	c #AEAEAE",
"k 	c #424242",
"l 	c #676767",
"m 	c #454545",
"n 	c #939393",
"o 	c #1A1A1A",
"p 	c #E9E9E9",
"q 	c #1F1F1F",
"r 	c #626262",
"s 	c #EAEAEA",
"t 	c #A6A6A6",
"u 	c #929292",
"v 	c #171717",
"w 	c #565656",
"x 	c #616161",
"y 	c #E2E2E2",
"z 	c #919191",
"A 	c #151515",
"B 	c #878787",
"C 	c #131313",
"D 	c #ECECEC",
"E 	c #121212",
"F 	c #8F8F8F",
"G 	c #838383",
"H 	c #414141",
"I 	c #9F9F9F",
"J 	c #161616",
"K 	c #6E6E6E",
"L 	c #CACACA",
"M 	c #111111",
"N 	c #767676",
"O 	c #505050",
"P 	c #3D3D3D",
"Q 	c #141414",
"R 	c #464646",
"S 	c #0B0B0B",
"T 	c #8E8E8E",
"U 	c #E1E1E1",
"V 	c #7A7A7A",
"W 	c #2B2B2B",
"X 	c #A4A4A4",
"Y 	c #0F0F0F",
"Z 	c #353535",
"` 	c #323232",
" .	c #3A3A3A",
"..	c #010101",
"+.	c #E7E7E7",
"@.	c #080808",
"#.	c #6C6C6C",
"$.	c #090909",
"%.	c #757575",
"&.	c #282828",
"*.	c #0A0A0A",
"=.	c #CECECE",
"-.	c #656565",
";.	c #0C0C0C",
">.	c #030303",
",.	c #4A4A4A",
"'.	c #C3C3C3",
").	c #636363",
"!.	c #363636",
"~.	c #000000",
"{.	c #F4F4F4",
"].	c #D1D1D1",
"^.	c #828282",
"/.	c #434343",
"(.	c #494949",
"_.	c #4B4B4B",
":.	c #7F7F7F",
"<.	c #747474",
"                  . + @ # $                     ",
"        % & %     * = - ; > ,   ' )             ",
"      ! ~ { ] ^   ' / ( _ : < [ { ~ }   |       ",
"      1 2 _ 3 ] 4 ~ 5 _ _ 5 6 7 _ 8 9 0 a b     ",
"      c d ( _ e ~ f g _ _ g h _ _ _ h i j { #   ",
"      k l _ _ _ m c n _ _ n o _ _ _ o 5 ( p q $ ",
"      r h s ( _ t ] u _ _ u v _ _ _ v u _ _ w b ",
"        0 x _ _ y o z _ _ z A _ _ _ A z _ _ B f ",
"        l C D _ _ E F _ _ F E _ _ _ C ; _ _ ; 6 ",
"  G H b I J n _ _ K L _ _ L K _ _ _ M F _ _ F q ",
"N E O P Q h R _ ( _ _ _ _ _ _ ( _ _ S F _ ( T h ",
"a ^ _ _ I E S _ _ _ _ _ _ _ _ _ _ _ U _ _ _ V W ",
"A e ( _ _ X Y 3 _ _ _ _ _ _ _ _ _ _ _ _ _ _ Z w ",
"`  ._ _ _ _ ..n _ _ _ _ _ _ _ _ _ _ _ _ _ +.@.  ",
"#.$.n _ _ _ U _ _ _ _ _ _ _ _ _ _ _ _ _ _ %.Q   ",
"  &.*.=._ _ _ _ _ _ _ _ _ _ _ _ _ _ _ ( 7 *.H   ",
"    # S +.( _ _ _ _ _ _ _ _ _ _ _ _ _ _ -.;.    ",
"      ] A +._ _ _ _ _ _ _ _ _ _ _ _ ( D >.,.    ",
"        [ @.'._ _ _ _ _ _ _ _ _ _ _ _ ).S       ",
"          !.~.- _ _ _ _ _ _ _ _ _ _ {.~.b       ",
"            J ~.].( _ _ _ _ _ _ _ _ ^.~.        ",
"              J /._ _ _ _ _ _ _ _ _ 0 (.        ",
"              _.~._ _ _ _ _ _ _ _ _ ~.          ",
"              ..~.B :.:.:.:.:.:.:.<.~._.        "};
