/* XPM */
static const char *mitkFillHoleTool_xpm[] = {
/* width height num_colors chars_per_pixel */
"    16    16      256            2",
/* colors */
"`` c #2b2b2b",
"`. c #343534",
"`# c #909090",
"`a c #444544",
"`b c #3a3b3a",
"`c c #676867",
"`d c #9d9e9d",
"`e c #402440",
"`f c #990399",
"`g c #540e54",
"`h c #3e363e",
"`i c #750475",
"`j c #a604a6",
"`k c #980198",
"`l c #ff04ff",
"`m c #d703d7",
"`n c #650065",
"`o c #fc04fc",
"`p c #d504d5",
"`q c #840784",
"`r c #391439",
"`s c #b404b4",
"`t c #e204e2",
"`u c #e104e1",
"`v c #e203e2",
"`w c #b601b6",
"`x c #3a3a3a",
"`y c #3c363c",
"`z c #660266",
"`A c #371437",
"`B c #4e524e",
"`C c #483b48",
"`D c #735b73",
"`E c #735a73",
"`F c #6c5b6c",
"`G c #183c18",
"`H c #3b363b",
"`I c #393a39",
"`J c #f804f8",
"`K c #b304b3",
"`L c #4a3c4a",
"`M c #e2e2e2",
"`N c #ffffff",
"`O c #f9fff9",
"`P c #81ff81",
"`Q c #42db42",
"`R c #4b3b4b",
"`S c #a1a2a1",
"`T c #a904a9",
"`U c #e504e5",
"`V c #755d75",
"`W c #b1ffb1",
"`X c #06d906",
"`Y c #5bbd5b",
"`Z c #775d77",
"`0 c #a1ffa1",
"`1 c #e1ffe1",
"`2 c #f6fff6",
"`3 c #4be34b",
"`4 c #1f9d1f",
"`5 c #badcba",
"`6 c #745b74",
"`7 c #57e757",
"`8 c #45fa45",
".` c #99fb99",
".. c #0cb70c",
".# c #99ca99",
".a c #775e77",
".b c #6bb96b",
".c c #04bf04",
".d c #04c104",
".e c #48a548",
".f c #e1efe1",
".g c #4b3d4b",
".h c #c6d4c6",
".i c #69b769",
".j c #e6f2e6",
".k c #3b353c",
".l c #640663",
".m c #361536",
".n c #4d514e",
".o c #493c49",
".p c #746073",
".q c #736072",
".r c #716070",
".s c #726071",
".t c #4e1c4b",
".u c #c82fbe",
".v c #7b2175",
".w c #361b34",
".x c #b00eae",
".y c #d62ccd",
".z c #d131c8",
".A c #c92dc0",
".B c #521351",
".C c #8c1e85",
".D c #f738eb",
".E c #c82ebf",
".F c #5d1459",
".G c #f518f1",
".H c #f72cee",
".I c #f532eb",
".J c #fa30f0",
".K c #970696",
".L c #333433",
".M c #3c273a",
".N c #8f2188",
".O c #3c373c",
".P c #740574",
".Q c #a407a3",
".R c #a408a3",
".S c #941191",
".T c #3f233f",
".U c #434543",
".V c #9d9d9d",
".W c #000000",
".X c #000000",
".Y c #000000",
".Z c #000000",
".0 c #000000",
".1 c #000000",
".2 c #000000",
".3 c #000000",
".4 c #000000",
".5 c #000000",
".6 c #000000",
".7 c #000000",
".8 c #000000",
"#` c #000000",
"#. c #000000",
"## c #000000",
"#a c #000000",
"#b c #000000",
"#c c #000000",
"#d c #000000",
"#e c #000000",
"#f c #000000",
"#g c #000000",
"#h c #000000",
"#i c #000000",
"#j c #000000",
"#k c #000000",
"#l c #000000",
"#m c #000000",
"#n c #000000",
"#o c #000000",
"#p c #000000",
"#q c #000000",
"#r c #000000",
"#s c #000000",
"#t c #000000",
"#u c #000000",
"#v c #000000",
"#w c #000000",
"#x c #000000",
"#y c #000000",
"#z c #000000",
"#A c #000000",
"#B c #000000",
"#C c #000000",
"#D c #000000",
"#E c #000000",
"#F c #000000",
"#G c #000000",
"#H c #000000",
"#I c #000000",
"#J c #000000",
"#K c #000000",
"#L c #000000",
"#M c #000000",
"#N c #000000",
"#O c #000000",
"#P c #000000",
"#Q c #000000",
"#R c #000000",
"#S c #000000",
"#T c #000000",
"#U c #000000",
"#V c #000000",
"#W c #000000",
"#X c #000000",
"#Y c #000000",
"#Z c #000000",
"#0 c #000000",
"#1 c #000000",
"#2 c #000000",
"#3 c #000000",
"#4 c #000000",
"#5 c #000000",
"#6 c #000000",
"#7 c #000000",
"#8 c #000000",
"a` c #000000",
"a. c #000000",
"a# c #000000",
"aa c #000000",
"ab c #000000",
"ac c #000000",
"ad c #000000",
"ae c #000000",
"af c #000000",
"ag c #000000",
"ah c #000000",
"ai c #000000",
"aj c #000000",
"ak c #000000",
"al c #000000",
"am c #000000",
"an c #000000",
"ao c #000000",
"ap c #000000",
"aq c #000000",
"ar c #000000",
"as c #000000",
"at c #000000",
"au c #000000",
"av c #000000",
"aw c #000000",
"ax c #000000",
"ay c #000000",
"az c #000000",
"aA c #000000",
"aB c #000000",
"aC c #000000",
"aD c #000000",
"aE c #000000",
"aF c #000000",
"aG c #000000",
"aH c #000000",
"aI c #000000",
"aJ c #000000",
"aK c #000000",
"aL c #000000",
"aM c #000000",
"aN c #000000",
"aO c #000000",
"aP c #000000",
"aQ c #000000",
"aR c #000000",
"aS c #000000",
"aT c #000000",
"aU c #000000",
"aV c #000000",
"aW c #000000",
"aX c #000000",
"aY c #000000",
"aZ c #000000",
"a0 c #000000",
"a1 c #000000",
"a2 c #000000",
"a3 c #000000",
"a4 c #000000",
"a5 c #000000",
"a6 c #000000",
"a7 c #000000",
"a8 c #000000",
/* pixels */
"```.`#`a`b`c`d`d`d`d`c`b`a`#`.``",
"`.`e`f`g`h`i`j`j`j`j`i`h`g`f`e`.",
"`#`k`l`m`n`o`l`l`l`l`o`n`m`l`k`#",
"`a`g`p`q`r`s`t`u`u`v`w`r`q`p`g`a",
"`x`y`z`A`B`C`D`D`E`F`G`B`A`z`H`I",
"`c`i`J`K`L`M`N`N`O`P`Q`R`K`J`i`c",
"`S`T`l`U`V`N`N`N`W`X`Y`Z`U`l`T`S",
"`d`j`l`u`E`0`1`2`3`4`5`D`u`l`j`d",
"`d`j`l`u`6`7`8.`...#`N`D`u`l`j`d",
"`S`T`l`U.a.b.c.d.e.f`N`V`U`l`T`S",
"`c`i`J`K.g.h.i.i.j`N`M`L`K`J`i`c",
"`I.k.l.m.n.o.p.q.r.s`C.n.m.l`H`I",
"`a.t.u.v.w.x.y.z.z.y.x.w.v.A.B`a",
"`#.C.D.E.F.G.H.I.I.H.G.F.E.J.K`#",
".L.M.N.t.O.P.Q.R.R.Q.P.O.t.S.T`.",
"``.L`#.U`x`c.V.V.V.V`c`x.U`#`.``"
};
