/* XPM */
static const char * mitkBulgeTool_xpm[] = {
/* width height num_colors chars_per_pixel */
"    32    32      256            2",
/* colors */
"`` c #646694",
"`. c #9cb6d4",
"`# c #bcdeec",
"`a c #7c8eb4",
"`b c #9c9a9c",
"`c c #c4c2c4",
"`d c #e4e2e4",
"`e c #accae4",
"`f c #747a94",
"`g c #8c9ebc",
"`h c #ccf2fc",
"`i c #b4b6b4",
"`j c #7c869c",
"`k c #9caac4",
"`l c #dcdedc",
"`m c #8c8ea4",
"`n c #a4c2e4",
"`o c #c4eafc",
"`p c #acaab4",
"`q c #e4f2fc",
"`r c #b4d6f4",
"`s c #747a9c",
"`t c #94a6c4",
"`u c #6c7294",
"`v c #acb6cc",
"`w c #c4d2e4",
"`x c #8c96b4",
"`y c #ccdeec",
"`z c #7c86ac",
"`A c #9cb2cc",
"`B c #bccee4",
"`C c #949ebc",
"`D c #d4fafc",
"`E c #7482ac",
"`F c #a4bedc",
"`G c #c4e6f4",
"`H c #8496b4",
"`I c #8c96ac",
"`J c #f4f2f4",
"`K c #9ca6cc",
"`L c #b4d2e4",
"`M c #b4c2d4",
"`N c #74769c",
"`O c #a4b6cc",
"`P c #c4deec",
"`Q c #848eac",
"`R c #a4a2a4",
"`S c #cccacc",
"`T c #e4eefc",
"`U c #8c8a8c",
"`V c #a4aecc",
"`W c #acc2d4",
"`X c #7c7e9c",
"`Y c #d4d2d4",
"`Z c #646e9c",
"`0 c #b4cae4",
"`1 c #848284",
"`2 c #dcf6fc",
"`3 c #9caad4",
"`4 c #dceaf4",
"`5 c #94929c",
"`6 c #cceaf4",
"`7 c #b4b2b4",
"`8 c #bcd6e4",
".` c #747aac",
".. c #94a6d4",
".# c #6c72a4",
".a c #848aa4",
".b c #a4b2cc",
".c c #94a2cc",
".d c #f4fefc",
".e c #c4defc",
".f c #848ebc",
".g c #acc2e4",
".h c #9c9eac",
".i c #7c8294",
".j c #8c9ecc",
".k c #d4f2f4",
".l c #bcbec4",
".m c #94aac4",
".n c #acbed4",
".o c #8c9ac4",
".p c #7c8aac",
".q c #94a2bc",
".r c #dcfafc",
".s c #a4b6dc",
".t c #eceaec",
".u c #b4cee4",
".v c #cceef4",
".w c #bcd6f4",
".x c #646a94",
".y c #9c9ea4",
".z c #c4c6c4",
".A c #7c7e84",
".B c #8ca2c4",
".C c #bcbac4",
".D c #84869c",
".E c #9caecc",
".F c #d4e6f4",
".G c #8c92a4",
".H c #acaebc",
".I c #e4fefc",
".J c #747ea4",
".K c #6c769c",
".L c #ccd6e4",
".M c #8c9abc",
".N c #cce6f4",
".O c #9cb2dc",
".P c #7c829c",
".Q c #9496a4",
".R c #bcc6dc",
".S c #c4e2ec",
".T c #8492b4",
".U c #cccecc",
".V c #8c8a9c",
".W c #acc6dc",
".X c #dcdadc",
".Y c #fcfafc",
".Z c #d4f6fc",
".0 c #eceeec",
".1 c #9cb6dc",
".2 c #9c9aa4",
".3 c #e4e6e4",
".4 c #8c9ec4",
".5 c #b4b6bc",
".6 c #9caacc",
".7 c #dcdee4",
".8 c #acaeac",
"#` c #747aa4",
"#. c #6c6e9c",
"## c #acbee4",
"#a c #7c7e94",
"#b c #ecfefc",
"#c c #7c82ac",
"#d c #acbad4",
"#e c #bcdaec",
"#f c #c4d6e4",
"#g c #cce2ec",
"#h c #bcd2e4",
"#i c #d4fefc",
"#j c #f4f6f4",
"#k c #d4d6d4",
"#l c #9caed4",
"#m c #dceef4",
"#n c #747eac",
"#o c #6c76a4",
"#p c #c4e2fc",
"#q c #8492bc",
"#r c #acc6e4",
"#s c #dcfefc",
"#t c #a4badc",
"#u c #bcdaf4",
"#v c #848a9c",
"#w c #949aa4",
"#x c #fcfefc",
"#y c #94a6cc",
"#z c #6c729c",
"#A c #8c96bc",
"#B c #7c86b4",
"#C c #9cb2d4",
"#D c #949ec4",
"#E c #a4bee4",
"#F c #c4e6fc",
"#G c #8496bc",
"#H c #b4d2ec",
"#I c #b4c2dc",
"#J c #7476a4",
"#K c #a4b6d4",
"#L c #848eb4",
"#M c #a4a2ac",
"#N c #8c8a94",
"#O c #acc2dc",
"#P c #b4caec",
"#Q c #9492a4",
"#R c #cceafc",
"#S c #b4b2bc",
"#T c #a4b2d4",
"#U c #d4f2fc",
"#V c #94aacc",
"#W c #7c8ab4",
"#X c #94a2c4",
"#Y c #b4ceec",
"#Z c #cceefc",
"#0 c #646a9c",
"#1 c #c4c6cc",
"#2 c #8c92ac",
"#3 c #c4e2f4",
"#4 c #ccced4",
"#5 c #eceef4",
"#6 c #000000",
"#7 c #000000",
"#8 c #000000",
"a` c #000000",
"a. c #000000",
"a# c #000000",
"aa c #000000",
"ab c #000000",
"ac c #000000",
"ad c #000000",
"ae c #000000",
"af c #000000",
"ag c #000000",
"ah c #000000",
"ai c #000000",
"aj c #000000",
"ak c #000000",
"al c #000000",
"am c #000000",
"an c #000000",
"ao c #000000",
"ap c #000000",
"aq c #000000",
"ar c #000000",
"as c #000000",
"at c #000000",
"au c #000000",
"av c #000000",
"aw c #000000",
"ax c #000000",
"ay c #000000",
"az c #000000",
"aA c #000000",
"aB c #000000",
"aC c #000000",
"aD c #000000",
"aE c #000000",
"aF c #000000",
"aG c #000000",
"aH c #000000",
"aI c #000000",
"aJ c #000000",
"aK c #000000",
"aL c #000000",
"aM c #000000",
"aN c #000000",
"aO c #000000",
"aP c #000000",
"aQ c #000000",
"aR c #000000",
"aS c #000000",
"aT c #000000",
"aU c #000000",
"aV c #000000",
"aW c #000000",
"aX c #000000",
"aY c #000000",
"aZ c #000000",
"a0 c #000000",
"a1 c #000000",
"a2 c #000000",
"a3 c #000000",
"a4 c #000000",
"a5 c #000000",
"a6 c #000000",
"a7 c #000000",
"a8 c #000000",
/* pixels */
"#x#x#x#x#x#x#x#x#x#x#x#x#x#x#x#x#x#x#x#x#x#x#x#x#x#x#x#x#x#x#x#x",
"#x#x#x#x#x#x#x#x#x#x#x#x#x#x#x#x#x#x#x#x#x#x#x#x#x#x#x#x#x#x#x#x",
"#x#x#x#x#x#x#x#x#x#x#x#x#x#x#x#x#x#x#x#x#x#x#x#x#x#x#x#x#x#x#x#x",
"#x#x#x#x#x#x#x#x#x#x#x#x#x#x#x#x#x#x#x#x#x#x#x#x#x#x#x#x#x#x#x#x",
"#x#x#x#x#x#x#x#x#x#x#x#x#x#x#x#x#x#x#x#x#x#x#x#x#x#x#x#x#x#x#x#x",
"#x#x#x#x`S`p.5.C#1`S.7.3.t`J#j.Y#x#x#x#x#x#x#x#x#x#x#x#x#x#x#x#x",
"#x#x#x#x#Q.s#O.q#c`k`C`N.T`I#2`X.D#v.D.V.Q.Q.2.h`p.5.C`Y#x#x#x#x",
"#x#x#x#x#Q`6.d#f.6#x.F#L`w#I#K.``K.L`q#D`w`4.L.f.R#I.b`X#x#x#x#x",
"#x#x#x#x#Q#3.I#h#X#h`z#L`A.n`B.T#d.E#D.J`v#x`J#D.d#x`T`m#x#x#x#x",
"#x#x#x#x#Q#q#X.p#n#``H.I.I#b`2`x#m.d#b`y#o#A#I`g#b.d`y.2#x#x#x#x",
"#x#x#x#x#Q#H`6.f`A.J#q#X.M.M#G#z.T`K#d`y.b#c#X.K#X#T#X#M#x#x#x#x",
"#x#x#x#x.Q`6#e#0#z.4.S.N`h.Z.Z#A`6`P`W`t#A.K#t#2#O`8#A.H#x#x#x#x",
"#x#x#x#x.Q.4#``A.6#O.I#s#s#s`2#A.r.I.I.I.I.m#0#z.E.d.b.l#x#x#x#x",
"#x#x#x#x.Q#y#L#U.B`L#s`D`D#s.v#G.Z#s#i#s.I`O.M#O#`.u`g`Y#x#x#x#x",
"#x#x#x#x.Q.g.4#Z#G`G.Z.Z`D`D`6#G.Z`D.r`D#s#O.T#s#G#L#z`d#x#x#x#x",
"#x#x#x#x.2.o`A#R#q.Z#i`D.r`D#3#A.Z`D.Z.Z#s`e#B`D#y`0`Q#5#x#x#x#x",
"#x#x#x#x.Q.##c#G#`.6#C#t.W#H#r.T#R#Z#U.Z#i#e.J.r#K#K.a.d#x#x#x#x",
"#x#x#x#x.2#q.c#O`E#K#C`K#X.4#L#z#q#q#G.o#X#X`Z#K`g#G.P#x#x#x#x#x",
"#x#x#x#x.2#l.B#F#q#R`h`h.Z`h.u.o#R#3#u.u`e#X#z#l#W#n.D#x#x#x#x#x",
"#x#x#x#x.2.j#L#3#q#u#R`o#R#Z#r.4`h#Z#Z#Z.Z#l.T`D#X.O`5#x#x#x#x#x",
"#j#x#x#x#w.f#z#E.4#r#R#F`o#R`F#X#Z#F#F#R#Z#q.1#p.T#r#Q#x.Y.Y#x#x",
".0#x#x#x.2#P`n.x.K#t`h#R#F#Z.1.c#R#F#F#F#u.f`o`..`#G`5.3`l.3`J`J",
"`J#x#x#x.2.j###`#n#n#y.1`r#F#C#V`h#R#F#Z#P`E#y#z#X`a#N`c.l`Y`l.t",
".Y#x#x#x.2#q.4.J.J``#q#X.f#L`E#B#y.4.4.o`E#c#z.4.Z.B.A`R`p`c#k.t",
"#x#x#x#x.h###Z#C`a#W.J#r#H.w#G#L#t#t.g#G.x#G#0.M#l.J`1`R`i.U.3`J",
"#x#x#x#x#M#y`r#V.c#R#q#o#q.c.f.M#t#V.B.##L.J#W`.#y#z`U.8`Y.t.Y#x",
"#x#x#x#x#k.Q.V`X`f`z.J.J.4#q#o#n.4..#`.1#R#G`3#Z#p`s#w`Y.0#x#x#x",
"#x#x#x#x#x#x#x#x.Y.0.7`S.5.H#w`m.D.P`u.a#G#o#G#E.g`u`S#x#x#x#x#x",
"#x#x#x#x#x#x#x#x#x#x#x#x#x#x#x#x#x#x`J`d#4.C.H.2`m.y#x#x#x#x#x#x",
"#x#x#x#x#x#x#x#x#x#x#x#x#x#x#x#x#x#x#x#x#x#x#x#x#x#x#x#x#x#x#x#x",
"#x#x#x#x#x#x#x#x#x#x#x#x#x#x#x#x#x#x#x#x#x#x#x#x#x#x#x#x#x#x#x#x",
"#x#x#x#x#x#x#x#x#x#x#x#x#x#x#x#x#x#x#x#x#x#x#x#x#x#x#x#x#x#x#x#x"
};
