/* XPM */
static const char * mousepointer_xpm[] = {
"50 50 191 2",
"  	c #FFFFFF",
". 	c #FEFEFE",
"+ 	c #FCFCFC",
"@ 	c #FDFDFD",
"# 	c #F8F8F8",
"$ 	c #FBFBFB",
"% 	c #F7F7F7",
"& 	c #EFEFEF",
"* 	c #F1F1F1",
"= 	c #DADADA",
"- 	c #383838",
"; 	c #393939",
"> 	c #E2E2E2",
", 	c #D7D7D7",
"' 	c #353535",
") 	c #373737",
"! 	c #DFDFDF",
"~ 	c #D8D8D8",
"{ 	c #363636",
"] 	c #333333",
"^ 	c #646464",
"/ 	c #6C6C6C",
"( 	c #B8B8B8",
"_ 	c #303030",
": 	c #A0A0A0",
"< 	c #D6D6D6",
"[ 	c #2F2F2F",
"} 	c #797979",
"| 	c #868686",
"1 	c #969696",
"2 	c #B0B0B0",
"3 	c #BABABA",
"4 	c #2D2D2D",
"5 	c #DEDEDE",
"6 	c #949494",
"7 	c #3A3A3A",
"8 	c #626262",
"9 	c #2C2C2C",
"0 	c #2E2E2E",
"a 	c #9F9F9F",
"b 	c #414141",
"c 	c #EDEDED",
"d 	c #ECECEC",
"e 	c #2B2B2B",
"f 	c #D9D9D9",
"g 	c #E0E0E0",
"h 	c #292929",
"i 	c #DDDDDD",
"j 	c #D5D5D5",
"k 	c #343434",
"l 	c #E4E4E4",
"m 	c #272727",
"n 	c #DCDCDC",
"o 	c #F2F2F2",
"p 	c #C8C8C8",
"q 	c #CCCCCC",
"r 	c #717171",
"s 	c #666666",
"t 	c #B7B7B7",
"u 	c #FAFAFA",
"v 	c #D4D4D4",
"w 	c #252525",
"x 	c #F9F9F9",
"y 	c #555555",
"z 	c #D3D3D3",
"A 	c #232323",
"B 	c #262626",
"C 	c #DBDBDB",
"D 	c #989898",
"E 	c #ABABAB",
"F 	c #BBBBBB",
"G 	c #222222",
"H 	c #919191",
"I 	c #616161",
"J 	c #1F1F1F",
"K 	c #999999",
"L 	c #494949",
"M 	c #6A6A6A",
"N 	c #E9E9E9",
"O 	c #1E1E1E",
"P 	c #202020",
"Q 	c #D2D2D2",
"R 	c #3B3B3B",
"S 	c #E6E6E6",
"T 	c #1C1C1C",
"U 	c #E5E5E5",
"V 	c #1A1A1A",
"W 	c #EEEEEE",
"X 	c #CECECE",
"Y 	c #747474",
"Z 	c #656565",
"` 	c #191919",
" .	c #1B1B1B",
"..	c #484848",
"+.	c #A3A3A3",
"@.	c #171717",
"#.	c #F6F6F6",
"$.	c #8A8A8A",
"%.	c #A8A8A8",
"&.	c #151515",
"*.	c #F5F5F5",
"=.	c #D1D1D1",
"-.	c #141414",
";.	c #F3F3F3",
">.	c #F4F4F4",
",.	c #979797",
"'.	c #464646",
").	c #6F6F6F",
"!.	c #E7E7E7",
"~.	c #EAEAEA",
"{.	c #111111",
"].	c #131313",
"^.	c #101010",
"/.	c #121212",
"(.	c #D0D0D0",
"_.	c #E3E3E3",
":.	c #0F0F0F",
"<.	c #CFCFCF",
"[.	c #F0F0F0",
"}.	c #CDCDCD",
"|.	c #CACACA",
"1.	c #6E6E6E",
"2.	c #606060",
"3.	c #0E0E0E",
"4.	c #4E4E4E",
"5.	c #0C0C0C",
"6.	c #0D0D0D",
"7.	c #8D8D8D",
"8.	c #A7A7A7",
"9.	c #0B0B0B",
"0.	c #CBCBCB",
"a.	c #8C8C8C",
"b.	c #676767",
"c.	c #0A0A0A",
"d.	c #E1E1E1",
"e.	c #E8E8E8",
"f.	c #818181",
"g.	c #636363",
"h.	c #090909",
"i.	c #C9C9C9",
"j.	c #EBEBEB",
"k.	c #3C3C3C",
"l.	c #242424",
"m.	c #282828",
"n.	c #323232",
"o.	c #060606",
"p.	c #070707",
"q.	c #2A2A2A",
"r.	c #313131",
"s.	c #565656",
"t.	c #A1A1A1",
"u.	c #212121",
"v.	c #808080",
"w.	c #050505",
"x.	c #898989",
"y.	c #1D1D1D",
"z.	c #040404",
"A.	c #858585",
"B.	c #878787",
"C.	c #7B7B7B",
"D.	c #787878",
"E.	c #828282",
"F.	c #8E8E8E",
"G.	c #7D7D7D",
"H.	c #8B8B8B",
"I.	c #959595",
"J.	c #ADADAD",
"K.	c #030303",
"L.	c #C7C7C7",
"M.	c #7A7A7A",
"N.	c #3F3F3F",
"O.	c #505050",
"P.	c #020202",
"Q.	c #B2B2B2",
"R.	c #7C7C7C",
"S.	c #3E3E3E",
"T.	c #404040",
"U.	c #7E7E7E",
"V.	c #4C4C4C",
"W.	c #707070",
"X.	c #4B4B4B",
"Y.	c #010101",
"Z.	c #000000",
"`.	c #3D3D3D",
" +	c #C5C5C5",
".+	c #777777",
"++	c #BCBCBC",
"@+	c #BEBEBE",
"#+	c #181818",
"$+	c #BDBDBD",
"%+	c #161616",
"                  . .     +   @         .     .                                                     ",
"                @           #   @ @ @       .                                                       ",
"                  .   $ % & * # .     +   @                                                         ",
"                  @     = - ; >   @           .                                                     ",
"                      + , ' ) !   $   . .     .                                                     ",
"                .       ~ { ] ^ / (     + .   .                                                     ",
"                    . . , _ { ' - : @ $   +                                                         ",
"                  .     < [ ' } | 1 2 3 .   @ .                                                     ",
"                .       , 4 [ 5   6 7 8 +   .       @         @                                     ",
"                .       , 9 0 5 @ a b ^ c d @ . +     @     @                                       ",
"                        < e 4 5 @ +   f ' - g     @         +                                       ",
"                        < h e i . $   j k { l   .   @   @ +                                         ",
"                        j m h n .   . o p q r s t u .         $                                     ",
"                        v w m n   $ x   u % y 7 :   . . @                                           ",
"                        z A B C + + @ +   + 6 | D E F .     @                                       ",
"                        z G w C $ . @ u + . x @ H ) I $                                             ",
"                .     . v J G = + + + + + + + + K L M d N $     .   .   @   .                       ",
"                      . v O P f $ $ $ $ $ $ $ $ u u Q - R S + . +         .   .                     ",
"                      . z T O ~ u u u u u u u u u $ z k k U @ .   $   . $                           ",
"                        z V T , x x x x x x x u @ % W X X Y Z 3 .   .   +                           ",
"                        z `  .< # # # # # x x x # $ $ %   ..R +.+   . @       .                     ",
"                  .     Q @.` j #.#.% % % # # # #.# x $ % D $.D %.t   . . .   .                     ",
"                  .     Q &.@.z *.*.*.*.#.#.% % $ *.u % #.x x H ; 8 @   . .                         ",
"                  .     =.-.&.Q ;.>.>.>.*.*.#.#.% #.% u # u u ,.'.).!.~.+     .                     ",
"                        =.{.].=.o o ;.>.>.*.*.*.% >.% # # x x x $ q ) ' S +   @   .     +     .     ",
"                    .   =.^./.(.* * o ;.;.>.>.*.o # *.u % u x u u =.' - _.  u +     @ .   .         ",
"                    .   (.:.{.<.[.[.[.* o ;.;.>.x * u #.# x x x % *.}.|.1.2.F   .     .   @         ",
"                    .   (.3.:.}.W & & [.* o ;.;.*.>.x *.% + u # + x x   4.) +.+   . @       .       ",
"                        (.5.6.q c W W & [.* o o o % o >.@ *.u   @ @ . x D 7.D 8.( +     @     .     ",
"                        <.9.5.0.d c c W & [.* o ;.>.#.% x u x # u + + + @   a.- b.@     . .   .     ",
"                    .   <.c.9.|.d d d c W & [.* o *.*.#.#.> g l d.> U e._._.f.) g.  x     @ @       ",
"                    .   <.h.c.i.j.j.j.d c W & [.o ;.#.;.$ k.l.A m 9 m.4 [ n.n.' I .   . @   . .     ",
"                        =.o.p.|.d e.j.~.c W c ;.[.*.*.>.#.k.P l.w l.q.q.4 r.4 n.I $       . @       ",
"                        (.o.p.i.!.d e.e.c [.s.b t.* o #.% ; u.v.}.v 0.=.X <.=.Q ~   @ @       @     ",
"                        (.w.w.i.~.l d c N d 9 &.x.[.[.% *.; y.D @   . . .     @   @       @   .     ",
"                        (.z.z.p ~.e.N j A.B.C.D.E.F.+.>.>.a.G.H.I.J.      .     +   @               ",
"                        (.K.K.L.S ~.!.F 5.c.!   M.{.N.o ;.#.# E.O O.u @   . .       $   .           ",
"                        <.P.K.L.!.n |.Q.B e 5 @ R./.S.* >.# >.G.O 4.    .   . + . @       . @       ",
"                        <.P.P.L.!.).o.{ + . @   C.5.T.[.o o #.U.` V.. . @             $     @       ",
"                        <.P.P.L.!.W.w.) .     . C.3.k.& & >.* R.` X.@ +   . @ . @   @               ",
"                    . . <.Y.Z.e n.G.0.j u .     g |.J.k.`.n & n L.J.L '.d . .                       ",
"                +       =.Z.Z.Y.Y.| + +       $   $ <.5.6.z & [.*  +@.V > .                         ",
"                      @ _.C.M..+D.++. .   + .     . 0.c.].(.c d & @+` #+U   . @                     ",
"                  +     @ . +   . @   +     @ .     p 5.p.}.c d * $+%+-.>                           ",
"                              . @     . .     .   + Q m r.t i.(.q J.r.k S .                         ",
"                @         @ .             @ .   +     + $ h h.5.:.'.  $     u                       ",
"                        @       . . @ .       .   . +     m.3.9.9.T.    u                           ",
"                  .       @   @       .   .     .       @ =.0.(.(.,   .     .                       ",
"                                                                                                    ",
"                                                                                                    "};
