/* XPM */
static const char * mitkMoveROITool_xpm[] = {
"96 96 9 1",
" 	c None",
".	c #FFFFFF",
"+	c #FFDEDE",
"@	c #FFA5A5",
"#	c #FF6363",
"$	c #FF4242",
"%	c #FF1010",
"&	c #FF0000",
"*	c #000000",
"                                                                                                ",
"                                       @@#$$%&&&&&&%$$#@@                                       ",
"                                  +@#$&&&&&&&&&&&&&&&&&&&&$#@+                                  ",
"                               +@$&&&&&&&&&&&&&&&&&&&&&&&&&&&&$@+                               ",
"                             +#%&&&&&&&&&&&&&&&&&&&&&&&&&&&&&&&&%#+                             ",
"                           @$&&&&&&&&&&$$#@@+      +@@#$$&&&&&&&&&&$@                           ",
"                         @$&&&&&&&&%#@+                  +@#%&&&&&&&&$@                         ",
"                       +$&&&&&&&%#+                          +#%&&&&&&&$+                       ",
"                      #&&&&&&&$@                                @$&&&&&&&#                      ",
"                    +$&&&&&&#+                                    +#&&&&&&$+                    ",
"                   @%&&&&&$@                                        @$&&&&&%@                   ",
"                  #&&&&&%@                                            @%&&&&&#                  ",
"                +$&&&&&$+                                              +$&&&&&$+                ",
"               +$&&&&%@                                                  @%&&&&$+               ",
"              +$&&&&%+                                                    +%&&&&$+              ",
"             +$&&&&$+                                                      +$&&&&$+             ",
"            +$&&&&#+                                                        +#&&&&$+            ",
"            $&&&&#                                                            #&&&&$            ",
"           #&&&&#                                                              #&&&&#           ",
"          @&&&&$+                                                              +$&&&&@          ",
"         +%&&&%+                                                                +%&&&%+         ",
"         $&&&%+                                                                  +%&&&$         ",
"        #&&&&@                                                                    @&&&&#        ",
"       +&&&&$                                                                      $&&&&+       ",
"       $&&&%+                                                                      +%&&&$       ",
"      @&&&&@                                                                        @&&&&@      ",
"      $&&&$                                                                          $&&&$      ",
"     @&&&&@                                                                          @&&&&@     ",
"     $&&&#                                                                            #&&&$     ",
"    +&&&&+                                                                            +&&&&+    ",
"    #&&&$                                                                              $&&&#    ",
"   +%&&&@                                                                              @&&&%+   ",
"   @&&&%                                                                                %&&&@   ",
"   $&&&#                                                                                #&&&$   ",
"  +&&&&+                                                                                +&&&&+  ",
"  @&&&%                                                                                  %&&&@  ",
"  #&&&#                                                                                  #&&&#  ",
"  $&&&@                                                                                  @&&&$  ",
"  &&&&+                                                                                  +&&&&  ",
" @&&&$                                                                                    $&&&@ ",
" @&&&$                                                                                    $&&&@ ",
" #&&&#                                                                                    #&&&# ",
" $&&&@                                                                                    @&&&$ ",
" $&&&@                                                                                    @&&&$ ",
" %&&&+                                         +@#@+                                      +&&&% ",
" &&&&                                         +%&&&%+                                      &&&& ",
" &&&&                                        +$&%&%&$+                                     &&&& ",
" &&&&                                        +&&&&&&&+                                     &&&& ",
" &&&&                                        @&&&&&&&@                                     &&&& ",
" &&&&                                        +&%&&&%&+                                     &&&& ",
" &&&&                                         #&%&%&#                                      &&&& ",
" %&&&+                                        +#&&&#+                                     +&&&% ",
" $&&&@                                          +@+                                       @&&&$ ",
" $&&&@                                                                                    @&&&$ ",
" #&&&#                                                                                    #&&&# ",
" @&&&$                                                                                    $&&&@ ",
" @&&&$                                                                                    $&&&@ ",
"  &&&&+                                                                                  +&&&&  ",
"  $&&&@                                                                                  @&&&$  ",
"  #&&&#                                                                                  #&&&#  ",
"  @&&&%                                                                                  %&&&@  ",
"  +&&&&+                                                                                +&&&&+  ",
"   $&&&#                                                                                #&&&$   ",
"   @&&&%                                                                                %&&&@   ",
"   +%&&&@                                                                              @&&&%+   ",
"    #&&&$                                                                              $&&&#    ",
"    +&&&&+                                                                            +&&&&+    ",
"     $&&&#                                                                            #&&&$     ",
"     @&&&&@                                                                          @&&&&@     ",
"      $&&&$                                                                          $&&&$      ",
"      @&&&&@                                                                        @&&&&@      ",
"       $&&&%+                                                                      +%&&&$       ",
"       +&&&&$                                                                      $&&&&+       ",
"        #&&&&@                                                                    @&&&&#        ",
"         $&&&%+                                                                  +%&&&$         ",
"         +%&&&%+                                                                +%&&&%+         ",
"          @&&&&$+                                                              +$&&&&@          ",
"           #&&&&#                                                              #&&&&#           ",
"            $&&&&#                                                            #&&&&$            ",
"            +$&&&&#+                                                        +#&&&&$+            ",
"             +$&&&&$+                                                      +$&&&&$+             ",
"              +$&&&&%+                                                    +%&&&&$+              ",
"               +$&&&&%@                                                  @%&&&&$+               ",
"                +$&&&&&$+                                              +$&&&&&$+                ",
"                  #&&&&&%@                                            @%&&&&&#                  ",
"                   @%&&&&&$@                                        @$&&&&&%@                   ",
"                    +$&&&&&&#+                                    +#&&&&&&$+                    ",
"                      #&&&&&&&$@                                @$&&&&&&&#                      ",
"                       +$&&&&&&&%#+                          +#%&&&&&&&$+                       ",
"                         @$&&&&&&&&%#@+                  +@#%&&&&&&&&$@                         ",
"                           @$&&&&&&&&&&$$#@@+      +@@#$$&&&&&&&&&&$@                           ",
"                             +#%&&&&&&&&&&&&&&&&&&&&&&&&&&&&&&&&%#+                             ",
"                               +@$&&&&&&&&&&&&&&&&&&&&&&&&&&&&$@+                               ",
"                                  +@#$&&&&&&&&&&&&&&&&&&&&$#@+                                  ",
"                                       @@#$$%&&&&&&%$$#@@                                       ",
"                                                                                                "};
