/* XPM */
static const char * cursor_hand_closed_xpm[] = {
"24 24 95 2",
"  	c None",
". 	c #909090",
"+ 	c #8E8E8E",
"@ 	c #C1C1C1",
"# 	c #353535",
"$ 	c #323232",
"% 	c #454545",
"& 	c #8C8C8C",
"* 	c #6B6B6B",
"= 	c #6E6E6E",
"- 	c #A2A2A2",
"; 	c #232323",
"> 	c #363636",
", 	c #242424",
"' 	c #3F3F3F",
") 	c #292929",
"! 	c #222222",
"~ 	c #282828",
"{ 	c #262626",
"] 	c #2A2A2A",
"^ 	c #A3A3A3",
"/ 	c #373737",
"( 	c #5D5D5D",
"_ 	c #FFFFFF",
": 	c #ECECEC",
"< 	c #202020",
"[ 	c #818181",
"} 	c #F0F0F0",
"| 	c #E8E8E8",
"1 	c #545454",
"2 	c #313131",
"3 	c #535353",
"4 	c #1F1F1F",
"5 	c #9B9B9B",
"6 	c #848484",
"7 	c #161616",
"8 	c #1A1A1A",
"9 	c #8F8F8F",
"0 	c #FEFEFE",
"a 	c #959595",
"b 	c #858585",
"c 	c #212121",
"d 	c #5F5F5F",
"e 	c #696969",
"f 	c #F5F5F5",
"g 	c #F3F3F3",
"h 	c #DCDCDC",
"i 	c #C3C3C3",
"j 	c #F2F2F2",
"k 	c #929292",
"l 	c #181818",
"m 	c #424242",
"n 	c #606060",
"o 	c #777777",
"p 	c #1B1B1B",
"q 	c #C8C8C8",
"r 	c #6F6F6F",
"s 	c #C9C9C9",
"t 	c #7F7F7F",
"u 	c #272727",
"v 	c #636363",
"w 	c #141414",
"x 	c #D8D8D8",
"y 	c #4A4A4A",
"z 	c #4E4E4E",
"A 	c #757575",
"B 	c #090909",
"C 	c #646464",
"D 	c #5C5C5C",
"E 	c #0A0A0A",
"F 	c #A5A5A5",
"G 	c #101010",
"H 	c #919191",
"I 	c #060606",
"J 	c #464646",
"K 	c #252525",
"L 	c #040404",
"M 	c #525252",
"N 	c #0D0D0D",
"O 	c #707070",
"P 	c #000000",
"Q 	c #6D6D6D",
"R 	c #FBFBFB",
"S 	c #505050",
"T 	c #414141",
"U 	c #E9E9E9",
"V 	c #B4B4B4",
"W 	c #969696",
"X 	c #171717",
"Y 	c #010101",
"Z 	c #7E7E7E",
"` 	c #4F4F4F",
" .	c #787878",
"..	c #393939",
"+.	c #343434",
"                                                ",
"                                                ",
"                                                ",
"          . +     @ # $ % @ & * =               ",
"        - ; > , ' ) ; ! ! ~ { ! ; ] ^           ",
"        / ( _ : ] < _ _ _ < [ } | 1 { 2 3       ",
"        4 5 _ _ 6 7 _ _ _ 8 9 _ 0 a ; b c d     ",
"        e { f 0 g h _ _ _ i j _ _ k l _ * m     ",
"          ~ e _ _ _ _ _ _ _ _ _ _ i n _ k !     ",
"        o , p q _ _ _ _ _ _ _ _ _ _ _ 0 9 <     ",
"      # l r d s _ _ _ _ _ _ _ _ _ _ _ _ t u     ",
"    v w x _ _ _ _ _ _ _ _ _ _ _ _ _ _ _ y z     ",
"    A ; _ _ _ _ _ _ _ _ _ _ _ _ _ _ _ } B C     ",
"    D E F _ _ _ _ _ _ _ _ _ _ _ _ _ _ A G       ",
"      1 E H _ 0 _ _ _ _ _ _ _ _ _ 0 : I J       ",
"        K L M _ _ _ _ _ _ _ _ _ _ _ C N         ",
"          O P Q _ _ _ _ _ _ _ _ _ R P S         ",
"            T P U _ _ _ _ _ _ _ _ F P V         ",
"              P W _ _ _ _ _ _ _ _ r X           ",
"              Y Z _ _ _ _ _ _ _ _ D c           ",
"              7 `  . . . . . . . ...+.          ",
"                                                ",
"                                                ",
"                                                "};
