/* XPM */
static const char *mitkSmoothTool_xpm[] = {
/* width height num_colors chars_per_pixel */
"    50    50      256            2",
/* colors */
"`` c #341018",
"`. c #828381",
"`# c #bac2c6",
"`a c #a40e24",
"`b c #c48684",
"`c c #684444",
"`d c #a14d54",
"`e c #d7e2e1",
"`f c #9aa2aa",
"`g c #c4a4aa",
"`h c #d85064",
"`i c #a48290",
"`j c #6c1919",
"`k c #e4f2f0",
"`l c #6c626c",
"`m c #dcc6bc",
"`n c #e48284",
"`o c #e8a4aa",
"`p c #8b9492",
"`q c #9c6674",
"`r c #792934",
"`s c #9c2e38",
"`t c #b0b5b7",
"`u c #c5b3bc",
"`v c #dcd4d0",
"`w c #efe4da",
"`x c #777377",
"`y c #bc6b7c",
"`z c #968482",
"`A c #d47274",
"`B c #c4927c",
"`C c #faf3ea",
"`D c #e9959c",
"`E c #7f4851",
"`F c #c43234",
"`G c #922624",
"`H c #b2a3a2",
"`I c #a4939e",
"`J c #d6a59f",
"`K c #9f7d87",
"`L c #f1eadf",
"`M c #880a0c",
"`N c #f5d4d4",
"`O c #d1d4d4",
"`P c #f16a71",
"`Q c #9c9288",
"`R c #9f4154",
"`S c #8f747b",
"`T c #f4fdf9",
"`U c #542428",
"`V c #c15351",
"`W c #e8b3bc",
"`X c #f7959b",
"`Y c #84524c",
"`Z c #a11f33",
"`0 c #b1bbbe",
"`1 c #898b8a",
"`2 c #c4959f",
"`3 c #873d44",
"`4 c #8a6468",
"`5 c #ac665c",
"`6 c #b69499",
"`7 c #cec4cb",
"`8 c #9f5a5c",
".` c #f7c4cf",
".. c #b1aba7",
".# c #50343c",
".a c #c7878f",
".b c #d4b4ba",
".c c #998c8b",
".d c #871a1c",
".e c #e4ece0",
".f c #c8abb1",
".g c #b72e3c",
".h c #ee7984",
".i c #989ba0",
".j c #fce4e4",
".k c #787a78",
".l c #904348",
".m c #d7acb0",
".n c #fcebe1",
".o c #fadcda",
".p c #d4939f",
".q c #8c858d",
".r c #a3acb2",
".s c #dfdbde",
".t c #f9f5f8",
".u c #62252c",
".v c #bc222c",
".w c #b68380",
".x c #f6889a",
".y c #6f393f",
".z c #ac3854",
".A c #bcb4bb",
".B c #a79b9b",
".C c #fcfefc",
".D c #f89ba3",
".E c #9e292e",
".F c #892032",
".G c #702230",
".H c #f8a3ae",
".I c #d97987",
".J c #8c7e6c",
".K c #f7b9c5",
".L c #d98893",
".M c #5c5254",
".N c #fc5674",
".O c #e3cccb",
".P c #8c9a9f",
".Q c #a0393c",
".R c #c8bdc0",
".S c #f0e5e9",
".T c #e99a97",
".U c #842838",
".V c #ac7a70",
".W c #b94357",
".X c #af7167",
".Y c #fc7b7f",
".Z c #e4e4e2",
".0 c #ecfcf2",
".1 c #706a6c",
".2 c #c0787c",
".3 c #bca6af",
".4 c #d8a5b0",
".5 c #d2dadc",
".6 c #bcbcbc",
".7 c #943741",
".8 c #846b6e",
"#` c #d0cdd0",
"#. c #540204",
"## c #641a0c",
"#a c #e4464c",
"#b c #d86464",
"#c c #c43e4c",
"#d c #bc6274",
"#e c #b90f24",
"#f c #b05c54",
"#g c #af4b4f",
"#h c #d79b91",
"#i c #745254",
"#j c #8c5c58",
"#k c #e46e88",
"#l c #c48c80",
"#m c #941624",
"#n c #cc4e54",
"#o c #9d191f",
"#p c #704b54",
"#q c #5c3e48",
"#r c #883240",
"#s c #b4616c",
"#t c #712f3c",
"#u c #ef5f71",
"#v c #640e08",
"#w c #847582",
"#x c #7c2219",
"#y c #ac4258",
"#z c #e4768c",
"#A c #cc7b89",
"#B c #cc9e94",
"#C c #904c4c",
"#D c #d99ba1",
"#E c #642d39",
"#F c #b78b8c",
"#G c #ac5654",
"#H c #715b61",
"#I c #c4c3c4",
"#J c #ec8999",
"#K c #cc7274",
"#L c #e46e68",
"#M c #941a1c",
"#N c #7c3e44",
"#O c #941c38",
"#P c #a88b8f",
"#Q c #e4acb2",
"#R c #9f6f71",
"#S c #4f2e34",
"#T c #e8bcbc",
"#U c #f4ccd6",
"#V c #d6bdc0",
"#W c #d48270",
"#X c #a4a4a0",
"#Y c #ecd4d8",
"#Z c #bcacb0",
"#0 c #eccad4",
"#1 c #e4565c",
"#2 c #ca9ca2",
"#3 c #d4324c",
"#4 c #7c191f",
"#5 c #fcd6ec",
"#6 c #98949d",
"#7 c #c4566c",
"#8 c #ac222c",
"a` c #847c7d",
"a. c #ecddd9",
"a# c #a02840",
"aa c #ac3840",
"ab c #e99da8",
"ac c #94283c",
"ad c #7c6c74",
"ae c #946c68",
"af c #5c1e2c",
"ag c #ac1a24",
"ah c #ec7274",
"ai c #c88e9c",
"aj c #f88e94",
"ak c #dc7e94",
"al c #d78e99",
"am c #af7e81",
"an c #94525c",
"ao c #7c656a",
"ap c #ac3038",
"aq c #fc7d97",
"ar c #7c323c",
"as c #943e40",
"at c #c4464f",
"au c #e88a8c",
"av c #7f4e57",
"aw c #9c464c",
"ax c #b49aa4",
"ay c #9c6264",
"az c #84221c",
"aA c #703e44",
"aB c #f4bec8",
"aC c #94323c",
"aD c #848490",
"aE c #8a959e",
"aF c #95848f",
"aG c #b1a6ae",
"aH c #ededef",
"aI c #8c0e24",
"aJ c #ec6e84",
"aK c #8b8b95",
"aL c #b4696f",
"aM c #b0aeb6",
"aN c #978c95",
"aO c #e2eced",
"aP c #a89ba7",
"aQ c #b47179",
"aR c #dc627c",
"aS c #b44a64",
"aT c #885d66",
"aU c #d79eaf",
"aV c #645a5c",
"aW c #ec7e84",
"aX c #c4cacc",
"aY c #dcd2e4",
"aZ c #fcedee",
"a0 c #8c7d81",
"a1 c #ac7880",
"a2 c #e4e4ee",
"a3 c #7c1e2c",
"a4 c #a4a3ae",
"a5 c #cca3a9",
"a6 c #ecf4f4",
"a7 c #e4c3cc",
"a8 c #a4696c",
/* pixels */
".C.C.C.C.C.C.C.C.C.C.C.C.C.C.C.C.t.t.C.C.C.C.C.C.C.C.C.C.C.C.C.C.C.C.C.C.C.C.C.C.C.C.C.C.C.C.C.C.C.C",
".C.C.C.C.C.C.C.C.C.C.C.C.C.C.C.C.C.t.C.C.C.C.C.C.C.C.C.C.C.C.C.C.C.C.C.C.C.C.C.C.C.C.C.C.C.C.C.C.C.C",
".C.C.C.C.C.C.C.C.C.C.C.C.C.C.C.C.C.C.C.C.C.C.C.C.C.C.t.C.C.C.C.C.C.C.C.C.C.C.C.C.C.C.C.C.C.C.C.C.C.C",
".C.C.C.C.C.C.C.C.C.C.C.C.C.C.C.C.C.C.C.C.C.C.C.C.C.C.C.C.C.C.C.C.C.C.C.C.C.C.C.C.C.C.C.C.C.C.C.C.C.C",
".C.C.C.C.C.C.C.C.C.C.C.C`T.C`T`T`T`T`T`T.C.C.C.C.C.C.C.C.C.C.C.C.C.C.C.C.C.C.C.C.C.C.C.C.C.C.C.C.C.C",
".C.C.C.C.C.C.C.C.C.C.C.C.C.C.C.C`T`T.C.C.C.C.C.C.C.C.C.C.C.C.C.C.C.C.C.C.C.C.C.C.C.C.C.C.C.C.C.C.C.C",
".C.C.C.C.C.C.C.C.C.C.C.C.C.C.C.C.C.C.C.C.C.C.C.C.C.C.C.C.C.C.C.C.C.C.C.C.C.C.C.C.C.C.C.C.C.C.C.C.C.C",
".C.C.C.C.C.C.C.C.t.C.t.t.t.t.t.C.C.C.C.C.t.t.t.C.C.C.C.C.C.C.C.C.C.C.C.C.C.C.C.C.C.C.C.C.C.C.C.C.C.C",
".C.C.C.C.C.C.C.C.C.C.C.C.C.C.C.C`C.C.C.jaZ.C`C.S.Z.0.C`T`T.C.C.C.C.C.C.C.C.C.C.C.C.C.C.C.C.C.C.C.C.C",
".C.C.C.C.C.C.C.C.C.C.C.C.C.C.C`L`La..O`7#0`N`N.O.O.j`w`L`C.C.C.C.C.C.C.C.C.C.C.C.C.C.C.C.C.C.C.C.C.C",
"aZ.C.C.C.t.C.C.C.C.C`T.C`C`w`v.R`Q.J#Pa5.p#s`R#y#y`A.L`o#Q.m#Y.C.C.C.C.C.t.C.C.C.C.C.C.C.C.C.C.C.C.C",
".C.t.C.C.C.t.C.t.s.S.n`N.m#F.w.w.Vae`8`3.U.F#O`Z.gat.W`d.l`c`6.C.C.t.C.C.C.C.C.C.C.C.C.C.C.C.C.C.C.C",
".C.C.C.C.t.C.t.ja5am#C`r#4.F.E.g#oagaga##caR#kaJ.haWau`D.w#R#P.O.C.C.C.C.C.C.C.C.C.C.C.C.C.C.C.C.C.C",
".C.C.C.t.C.t.f#H#E.u`r.F#m#o`a#e#e#e#3#uaq.x.x.D.D`X.Dab`o`2`i.c`7aH.C.C.C.C.C.C.C.C.C.C.C.C.C.C.C.C",
".C.t`C.t.t`O`H.B`gam`8#r`G`Z#oag.v#a.Yaj`X.H.D.D.Dajaj`X.T#DaU`IaF`t.S.C.C.C.C.C.C.C.C.C.C.C.C.C.C.C",
".C.s`..M.q`m.Sa.#V`u`W#Q.T#A#gaaaa`VaW`X`X`X.L.L#s#Gaw#faL#A.HaU`6.c#X`O.C.C.C.C.C.C.C.C.C.C.C.C.C.C",
".0a6`H.#``.#ao`H.R.6...A.f#0#5.K.4.aauau#J#J#s#ray`J#B.Van`3aS.xab#D`I`.#`.t.t.t.t.C.C.C.C.C.C.C.C.C",
"`T`T.s.R#H``#S#qao`x`.`1a4#6.AaY.jaZ.o.`ab`y`3a1.o`C.C.naB`yaC.F#d#D`g.B.k.R.s.C.C.taH.C`T.e`T.C.C.C",
".C.C.C.5`v.B#S`U#EavaT`4a`#6aE.i#X`7.o.t.j#5#Z.o`C.C`C`C`C.o.4#N#raw.LaU#Pa`..a2.C`T.CaOa6`T`e`LaH.C",
".C`T`T.0`e`O`H#iaf.u#NaTao`Q`p`1.P.i.i`#aYaO`OaH.C.C.C.C.C`C`C#0a8`r#r.L`J.Ba`.i`e`TaOaO.Ca6.s.saH.t",
".C.C`T.C`kaX.A#Z`4afaf.y#jae`Q#X`p.P`p`p.PaEaG.S.S.t.t.C.C.C.C.C.oam#r`r.Iab`2#waN`O.t`T`k`e.s.S`T.C",
".C.t.C.C.C`T#`#I.B`S.yafaA#jay`z`H.PaEaE.P.iaNaF`l#Z.OaH.C.C`C.C.C.n.w.G.F.IabaU`S`zaY.S.5aOaH.C.C.C",
".t.C.C.C.C`T`T`t`p#Xad`c`UaA#C`5a0aFaPaM`IaP`faDaNaD`laF.O.C.C.C`C.C.naeac`Z#z.Hab`q`E#2.sa2.C.t.C.C",
".C.C.C.C.C.C`T`k`t`p`..k#i.u`d.Xa8`K`K`g`u#Z#6`faK#6.qad`I.R`C.C.C.C`C.OaCaI.z.x`D`n`R#t`6`C.t.C.C.C",
".C.C.C.C.C.C.C.C`C`t.i.J.J`4.uan.2`ya1#PaMaX`t`0a4aEaKaKaN`u`u.j`C`C.C.n`3.d#4#gau#z`h.Q`E.o.C.C.C.C",
".C.C.C.C.C.C.C.C`T.t`t`Q#wao`K.y.l#Aai#PaPa4.5`0`0.r`faNaKaN#w`i.m.j.C`m.u`j#v.d#b.h#uap`3.o.C.C.C.C",
".C.C.C.C.C.C.C.C.C.t.t`uaFa0adadaT`E#F#2`6.3aG#``#`#.Aa4aPaN.q#w#qaTa5.w`o#####x`V.Y`P.E`8`N.C.C.C.C",
"`T.C.C.C.C.C.C.C.t.C.C.t#`.q`xa`a0.8av`2.ma5.f.f.R`7`7.A.A#6#6aKaF`c#EaQaL#.#vaz#L.Y#b.Q`2.n.C.C.C.C",
".C.C.C.C.C.C.C.C.C`T`T`Ta6`O.qa`.1.q`z#p#2.K`W.4.4`u#V`7aXa4.raNaKa0aA#t`j#4`G`G#Lah#gaL`N.C.C`T.C.C",
".C.C.C.C.C.C.C.C.C.C`T`T.Ca6.s#6.k`x`.aF#p`2.K.K`W.m`u`7#``#`#.r`faD`S#t`y.Q`M#oat#g#C`o`C`C.C.C.C.C",
".C.C.C.C.C.C.C.C.C.C`C.C.C`T`T.5.raDaD.qaPao#Pa7#Ua7.b.R.A`#`#`0.ra4aF.8.l`Aap`M#M.Q.2.o`C.C.t.C.C.C",
".C.C.C.C.C.C.C.C.C.C.C.t.C.C`T`Ta2.raK`faMa4a`a0#Y#U#0a7.f.R#I.6#6.i.i#w#j.lat#oazas#T`C.C.C.C.C.C.C",
".C.C.C.C.C.C.C.C.C.C.C.C.C.C.C.C.Ca2`#`t`0`0aMaNa`a7#U#Ua7aU.m.baMaDaD.qaFav`s.E#x#h.j.C`C.t.C.C.C.C",
".C.C.C.C.C.C.C.C.C.C.C.C.C.C.C.C.C.CaHaX`#.5.5`#aN.8.b.`.KaB`W.4#V.A`I#w`f`S.7`G#x.X.n.C.t.C.C.C.C.C",
".C.C.C.C.C.C.C.C.C.C.C.C.C.C.C.C.C.C.CaO.5.5.5aY.RaP.8`g.``W`W#Q#2#B`uaG`t.B`5`G.das`N`C.C.C.C.C.C.C",
".C.C.C.C.C.C.C.C.C.C.C.C.C.C.C.C.C.C.C.C.Ca2aY`ea2aGaG.8`I`W`W`oab#D.4a5aM`H#l#f#o`G`J.C.C.C.C.C.C.C",
".C.C.C.C.C.C.C.C.C.C.C.C.C.C.C.C.C.C.C.C.C.C.taH#`aX.A`I.8#P.4`o`D`Xalai.4`g`B#W`F.E#W.C.t.C.C.C.C.C",
".C.C.C.C.C.C.C.C.C.C.C.C.C.C.C.C.C.C.C.C.t.C.C.ta2.s.6aDaN`S`K.p`Xaj.xak.L#D`J.T#1`F.w.n.C.C.C.C.C.C",
".C.C.C.C.C.C.C.C.C.C.C.C.C.C.C.C.C.C.C.C.C.C.t.C.Ca6#``1.1`S`K#RakaJaqaq#kak#h#W`P#n.X.n.C.C.C.C.C.C",
".C.C.C.C.C.C.C.C.C.C.C.C.C.C.C.C.C.C.C.C.C.C.C.C`T.C.C`vaN#HaN`6aQ#gaca#.z#7#KaW#u`P`Y.C.C.C.C.C.C.C",
".C.C.C.C.C.C.C.C.C.C.C.C.C.C.C.C.C.C.C.C.C.C.C.C.C.C.C.C.t.S#``7`C`Laxav.Ga3`s#c.N`hal.n.t.C.C.C.C.C",
".C.C.C.C.C.C.C.C.C.C.C.C.C.C.C.C.C.C.C.C.C.C`T.C.C.C.C.C.C.C.C`T.0`T.C.t.`.L`R`Z`Z.W#Q.C.C.t.t.t.C.C",
".C.C.C.C.C.C.C.C.C.C.C.C.C.C.C.C.C.C.C.C.C`T.C`T.C.C.C.t.C.C.C.C.C.C.C.t.taZ#5.`al#Q.j.C.C.C.C.C.C.C",
".C.C.C.C.C.C.C.C.C.C.C.C.C.C.C.C.C.C.C.C.C`T.C.C.C.C.C.C.C.C.C.C.C.C.C.C.C.C.CaZ`C.C.C`T.C`T.C.C.C.C",
".C.C.C.C.C.C.C.C.C.C.C.C.C.C.C.C.C.C.C.C.C.C.C.C.C.C.C.C.C.C.C.C.C.C.C.C.C.C.C.C.t.C.C.C.C.C.C.C.C.C",
".C.C.C.C.C.C.C.C.C.C.C.C.C.C.C.C.C.C.C.C.C.C.C.C.C.C.C.C.C.C.t.C.C.C.C.C.C`T`T.0`T.C.C.C`T.C.C.C.C.C",
".C.C.C.C.C.C.C.C.C.C.C.C.C.C.C.C.C.C.C.C.C.C.C.C.C.C.C.C.C.C.C.C.t.t.C.t.C.C.C.C.C.C`T.C`T.C.C.t.C.C",
".C.C.C.C.C.C.C.C.C.C.C.C.C.C.C.C.C.C.C.C.C.t.C.C.C.C.C.C.C.C.C.t.t.C.C.C.C.t.t.C.C.t.C`T.C.C.t.t.C.C",
".C.C.C.C.C.C.C.C.C.C.C.C.C.C.C.C.C.C.C.C.C.C.C.C.C.C.C.C.C.C.C.C.C.C.C.C.C.C.C.C.C.C.C.C.C.C.C.C.C.C",
".C.C.C.C.C.C.C.C.C.C.C.C.C.C.C.C.C.C.C.C.C.C.C.C.C.C.C.C.C.C.C.C.C.C.C.C.C.C.C.C.C.C.C.C.C.C.C.C.C.C"
};
