/* XPM */
static const char * mitkSurfaceRefinementTool_xpm[] = {
"48 48 632 2",
"  	c None",
". 	c #020101",
"+ 	c #000000",
"@ 	c #030302",
"# 	c #070300",
"$ 	c #251200",
"% 	c #0B0806",
"& 	c #090501",
"* 	c #683301",
"= 	c #7B3C00",
"- 	c #0C0600",
"; 	c #0A0906",
"> 	c #221A14",
", 	c #33271D",
"' 	c #2E1601",
") 	c #DA6A00",
"! 	c #B55800",
"~ 	c #080400",
"{ 	c #090706",
"] 	c #564433",
"^ 	c #907155",
"/ 	c #BB5B00",
"( 	c #DE6C00",
"_ 	c #090400",
": 	c #080605",
"< 	c #947559",
"[ 	c #E5B487",
"} 	c #0A0602",
"| 	c #864101",
"1 	c #321800",
"2 	c #060606",
"3 	c #1B150F",
"4 	c #CCA179",
"5 	c #FFCA97",
"6 	c #241A11",
"7 	c #482400",
"8 	c #6A3300",
"9 	c #080500",
"0 	c #0C0C0C",
"a 	c #453829",
"b 	c #F2BF8F",
"c 	c #68523C",
"d 	c #170C00",
"e 	c #CE6500",
"f 	c #A24E00",
"g 	c #0B0500",
"h 	c #090909",
"i 	c #80817E",
"j 	c #BABCB8",
"k 	c #0F0F0E",
"l 	c #866A4F",
"m 	c #C39972",
"n 	c #070400",
"o 	c #A35000",
"p 	c #D86900",
"q 	c #B05702",
"r 	c #050301",
"s 	c #B6B8B4",
"t 	c #E6E8E4",
"u 	c #DFE2DD",
"v 	c #040404",
"w 	c #090705",
"x 	c #120F0B",
"y 	c #C19972",
"z 	c #F8C593",
"A 	c #120C06",
"B 	c #663101",
"C 	c #CA6200",
"D 	c #AB5402",
"E 	c #C26C19",
"F 	c #362717",
"G 	c #A8A9A6",
"H 	c #E5E7E3",
"I 	c #E4E7E2",
"J 	c #1E1E1D",
"K 	c #0B0906",
"L 	c #3A2E23",
"M 	c #EABA8B",
"N 	c #413224",
"O 	c #2D1501",
"P 	c #DA6B00",
"Q 	c #B95C02",
"R 	c #AD5705",
"S 	c #D27D2C",
"T 	c #E08B39",
"U 	c #6B441E",
"V 	c #71716E",
"W 	c #E4E6E1",
"X 	c #4C4D4B",
"Y 	c #070604",
"Z 	c #775E47",
"` 	c #FEC897",
" .	c #957658",
"..	c #0B0600",
"+.	c #B95B00",
"@.	c #AE5603",
"#.	c #BB6614",
"$.	c #DD8836",
"%.	c #DF8B39",
"&.	c #9E6328",
"*.	c #3D3832",
"=.	c #E3E6E1",
"-.	c #E3E5E0",
";.	c #7A7B79",
">.	c #090A09",
",.	c #080604",
"'.	c #0F0C09",
").	c #B38E6A",
"!.	c #E4B587",
"~.	c #854201",
"{.	c #DC6C00",
"].	c #BE5D01",
"^.	c #AB5503",
"/.	c #CD7827",
"(.	c #D08235",
"_.	c #0C0A08",
":.	c #E0E2DD",
"<.	c #E2E5DF",
"[.	c #A4A6A3",
"}.	c #111110",
"|.	c #0A0806",
"1.	c #2D231A",
"2.	c #462301",
"3.	c #D36700",
"4.	c #B15803",
"5.	c #B6600E",
"6.	c #DA8634",
"7.	c #DF8B38",
"8.	c #271D13",
"9.	c #B5B6B2",
"0.	c #E1E4DE",
"a.	c #CCCFCA",
"b.	c #070707",
"c.	c #68533E",
"d.	c #FBC695",
"e.	c #6A533D",
"f.	c #160B00",
"g.	c #CE6400",
"h.	c #C36001",
"i.	c #AA5402",
"j.	c #C87321",
"k.	c #DF8A38",
"l.	c #5A3B1C",
"m.	c #80827E",
"n.	c #E0E3DE",
"o.	c #0E0E0C",
"p.	c #A78463",
"q.	c #EEBC8D",
"r.	c #5A4735",
"s.	c #904600",
"t.	c #B45A03",
"u.	c #B25C09",
"v.	c #D78331",
"w.	c #DE8A38",
"x.	c #8D5824",
"y.	c #4C4842",
"z.	c #DFE2DC",
"A.	c #333432",
"B.	c #0B0807",
"C.	c #241D16",
"D.	c #D9AA80",
"E.	c #DDAF83",
"F.	c #423326",
"G.	c #080502",
"H.	c #3B240E",
"I.	c #2B1A08",
"J.	c #3B1D00",
"K.	c #C06A18",
"L.	c #C07830",
"M.	c #181411",
"N.	c #DEE1DB",
"O.	c #636462",
"P.	c #080704",
"Q.	c #584635",
"R.	c #C09871",
"S.	c #2F2319",
"T.	c #070502",
"U.	c #4D2F11",
"V.	c #C2762B",
"W.	c #D38231",
"X.	c #BF7730",
"Y.	c #181007",
"Z.	c #6C3908",
"`.	c #DE8A37",
" +	c #16110C",
".+	c #C2C5C0",
"++	c #DDE0DA",
"@+	c #8D8F8C",
"#+	c #11110F",
"$+	c #99785A",
"%+	c #9D7C5D",
"&+	c #201810",
"*+	c #090602",
"=+	c #613B16",
"-+	c #D88430",
";+	c #EC9135",
">+	c #C67B2E",
",+	c #D68C41",
"'+	c #F7AD62",
")+	c #D29454",
"!+	c #9A5715",
"~+	c #DE8937",
"{+	c #49321A",
"]+	c #8D8F8B",
"^+	c #DCDFD9",
"/+	c #B4B8B2",
"(+	c #0C0D0C",
"_+	c #090806",
":+	c #1C1610",
"<+	c #D0A47C",
"[+	c #796048",
"}+	c #160F09",
"|+	c #100A04",
"1+	c #74481A",
"2+	c #E98F34",
"3+	c #FC9B39",
"4+	c #DA8633",
"5+	c #C57A30",
"6+	c #E89E53",
"7+	c #F9B064",
"8+	c #F9AF64",
"9+	c #9A6C3E",
"0+	c #100801",
"a+	c #C17227",
"b+	c #DD8937",
"c+	c #7D4E1F",
"d+	c #5B5954",
"e+	c #DBDED8",
"f+	c #D8DBD4",
"g+	c #4A3B2B",
"h+	c #F2C090",
"i+	c #0E0905",
"j+	c #1B1106",
"k+	c #88531F",
"l+	c #F69637",
"m+	c #FF9C39",
"n+	c #F19436",
"o+	c #CA7D30",
"p+	c #D1873C",
"q+	c #F4AB60",
"r+	c #F8AF64",
"s+	c #573C21",
"t+	c #2A1502",
"u+	c #D78332",
"v+	c #DD8936",
"w+	c #B06D2B",
"x+	c #28241E",
"y+	c #DADED7",
"z+	c #DADDD6",
"A+	c #1F201F",
"B+	c #8B6E52",
"C+	c #DCAF82",
"D+	c #3F3225",
"E+	c #090603",
"F+	c #2A1A0A",
"G+	c #9E6023",
"H+	c #DF8933",
"I+	c #C4792F",
"J+	c #E3994E",
"K+	c #F9B065",
"L+	c #F8AF63",
"M+	c #F5AD62",
"N+	c #22170B",
"O+	c #582F07",
"P+	c #DA8735",
"Q+	c #0B0907",
"R+	c #CDD0C9",
"S+	c #D9DCD5",
"T+	c #4B4C4A",
"U+	c #0A0805",
"V+	c #15110D",
"W+	c #8B6E51",
"X+	c #2B2119",
"Y+	c #070402",
"Z+	c #3A230E",
"`+	c #B56F29",
" @	c #F69737",
".@	c #CD7F31",
"+@	c #CC8237",
"@@	c #F1A85D",
"#@	c #F8AE63",
"$@	c #DF9D5A",
"%@	c #0B0703",
"&@	c #8B4F14",
"*@	c #392817",
"=@	c #9B9D98",
"-@	c #D8DCD5",
";@	c #797B77",
">@	c #0A0A0A",
",@	c #0D0908",
"'@	c #18120B",
")@	c #4E3012",
"!@	c #CB7C2E",
"~@	c #E58C33",
"{@	c #C3782E",
"]@	c #DD9448",
"^@	c #F7AE63",
"/@	c #AB7944",
"(@	c #0A0501",
"_@	c #B56B24",
":@	c #DC8836",
"<@	c #6C441C",
"[@	c #686964",
"}@	c #D7DBD4",
"|@	c #9FA29C",
"1@	c #101010",
"2@	c #E08932",
"3@	c #FA9938",
"4@	c #D18131",
"5@	c #C87D33",
"6@	c #EEA459",
"7@	c #F7AE62",
"8@	c #674828",
"9@	c #1B0E02",
"0@	c #D17F30",
"a@	c #DC8835",
"b@	c #9F6226",
"c@	c #36322C",
"d@	c #D6DAD3",
"e@	c #C6C9C2",
"f@	c #050605",
"g@	c #010101",
"h@	c #0F0903",
"i@	c #75471B",
"j@	c #EF9236",
"k@	c #EA8F35",
"l@	c #C5792E",
"m@	c #D88D43",
"n@	c #2C1E10",
"o@	c #422407",
"p@	c #CF8032",
"q@	c #D2D5CE",
"r@	c #D5D9D1",
"s@	c #0F0F0F",
"t@	c #7B4C1C",
"u@	c #E88E34",
"v@	c #D88532",
"w@	c #E9A055",
"x@	c #F6AD62",
"y@	c #E9A45C",
"z@	c #0F0A04",
"A@	c #774312",
"B@	c #281E12",
"C@	c #A8AAA5",
"D@	c #D4D8D0",
"E@	c #353634",
"F@	c #0C0703",
"G@	c #060401",
"H@	c #3E270E",
"I@	c #A56526",
"J@	c #FB9A38",
"K@	c #F09336",
"L@	c #C87C2F",
"M@	c #D2883D",
"N@	c #F5AC61",
"O@	c #F6AD61",
"P@	c #BA834A",
"Q@	c #080401",
"R@	c #A66221",
"S@	c #DC8735",
"T@	c #DB8734",
"U@	c #5B3B1A",
"V@	c #767873",
"W@	c #D3D7CF",
"X@	c #626461",
"Y@	c #0C0702",
"Z@	c #0C0803",
"`@	c #5A3815",
" #	c #C58544",
".#	c #F6AC61",
"+#	c #76532F",
"@#	c #100901",
"##	c #C97B2E",
"$#	c #8F5822",
"%#	c #45423B",
"&#	c #D2D6CE",
"*#	c #8A8D87",
"=#	c #0D0D0D",
"-#	c #292B29",
";#	c #5C5A57",
">#	c #161310",
",#	c #3C2E20",
"'#	c #9B6D3E",
")#	c #EDA75F",
"!#	c #F5AC60",
"~#	c #362615",
"{#	c #2E1A06",
"]#	c #D98634",
"^#	c #DB8735",
"/#	c #C1772E",
"(#	c #14110E",
"_#	c #D1D5CD",
":#	c #B0B4AC",
"<#	c #0B0B0B",
"[#	c #7D7E7C",
"}#	c #E7E9E5",
"|#	c #E8EAE6",
"1#	c #E2E5E1",
"2#	c #9FA19E",
"3#	c #484540",
"4#	c #100D0B",
"5#	c #60452B",
"6#	c #C1884E",
"7#	c #EDA75D",
"8#	c #603810",
"9#	c #18120C",
"0#	c #B3B7AF",
"a#	c #CED2CA",
"b#	c #050505",
"c#	c #1E1E1E",
"d#	c #A1A29F",
"e#	c #E3E4E1",
"f#	c #E7E9E4",
"g#	c #E5E8E3",
"h#	c #CFD1CD",
"i#	c #7A7A77",
"j#	c #25211D",
"k#	c #261E16",
"l#	c #845E36",
"m#	c #DE9C59",
"n#	c #F5AB60",
"o#	c #C4894C",
"p#	c #080501",
"q#	c #95581D",
"r#	c #4B3219",
"s#	c #83857F",
"t#	c #CFD3CB",
"u#	c #212120",
"v#	c #10100F",
"w#	c #0B0B0A",
"x#	c #5C5D5A",
"y#	c #B3B4B1",
"z#	c #E2E5E0",
"A#	c #AFB1AD",
"B#	c #5B5A55",
"C#	c #110E0C",
"D#	c #473623",
"E#	c #AA7844",
"F#	c #F2AA60",
"G#	c #F4AB5F",
"H#	c #835B33",
"I#	c #0B0601",
"J#	c #BC732A",
"K#	c #DA8733",
"L#	c #7E4D1D",
"M#	c #52514B",
"N#	c #CED3CA",
"O#	c #4A4C49",
"P#	c #161616",
"Q#	c #717270",
"R#	c #C4C6C1",
"S#	c #E2E4DF",
"T#	c #D7D9D4",
"U#	c #8B8D89",
"V#	c #37342F",
"W#	c #6D4E2E",
"X#	c #CB8E50",
"Y#	c #3E2C19",
"Z#	c #1F1205",
"`#	c #B06C29",
" $	c #231F19",
".$	c #CDD2C9",
"+$	c #080808",
"@$	c #282928",
"#$	c #858683",
"$$	c #D0D3CD",
"%$	c #BFC1BB",
"&$	c #6C6C68",
"*$	c #1B1814",
"=$	c #302519",
"-$	c #94683B",
";$	c #E7A25B",
">$	c #EDA65C",
",$	c #160F08",
"'$	c #4A2C0E",
")$	c #D78431",
"!$	c #0C0906",
"~$	c #BEC2BA",
"{$	c #9A9D96",
"]$	c #0E0E0E",
"^$	c #0D0E0D",
"/$	c #3D3E3C",
"($	c #979995",
"_$	c #D7DAD4",
":$	c #DCE0D9",
"<$	c #4A4742",
"[$	c #0E0C0A",
"}$	c #563F27",
"|$	c #B47E46",
"1$	c #F3AB5F",
"2$	c #F3AA5E",
"3$	c #CB8E4E",
"4$	c #7F4C1A",
"5$	c #D98632",
"6$	c #D98532",
"7$	c #3A2816",
"8$	c #8E928C",
"9$	c #BFC4BA",
"0$	c #050504",
"a$	c #535552",
"b$	c #A7AAA5",
"c$	c #D9DDD6",
"d$	c #C9CCC5",
"e$	c #7C7E79",
"f$	c #2C2924",
"g$	c #7C5832",
"h$	c #D79754",
"i$	c #F3AB5E",
"j$	c #8C6336",
"k$	c #AC6926",
"l$	c #6D441B",
"m$	c #60605B",
"n$	c #CACFC5",
"o$	c #111111",
"p$	c #141414",
"q$	c #686A66",
"r$	c #B7BAB4",
"s$	c #D7DAD3",
"t$	c #D6DAD2",
"u$	c #D5D9D2",
"v$	c #ABAEA8",
"w$	c #120F0C",
"x$	c #3F301F",
"y$	c #9D6E3D",
"z$	c #EAA45B",
"A$	c #F3AA5D",
"B$	c #F2AA5D",
"C$	c #45311C",
"D$	c #140C04",
"E$	c #CB7C2F",
"F$	c #A06225",
"G$	c #312D27",
"H$	c #C9CEC4",
"I$	c #353633",
"J$	c #0A0A09",
"K$	c #252524",
"L$	c #7A7D78",
"M$	c #C3C7C0",
"N$	c #D5D8D1",
"O$	c #CCD1C8",
"P$	c #8C8F89",
"Q$	c #3E3C36",
"R$	c #100D0A",
"S$	c #64482A",
"T$	c #C2884B",
"U$	c #F2A95D",
"V$	c #ECA55B",
"W$	c #18110A",
"X$	c #35200C",
"Y$	c #CE7E2F",
"Z$	c #C3C8BE",
"`$	c #62645F",
" %	c #383938",
".%	c #8D8F8A",
"+%	c #CBCEC7",
"@%	c #D1D6CD",
"#%	c #D0D4CC",
"$%	c #B7BCB4",
"%%	c #6A6B65",
"&%	c #1E1B17",
"*%	c #292016",
"=%	c #875F34",
"-%	c #DD9A55",
";%	c #CE904E",
">%	c #0B0702",
",%	c #673F16",
"'%	c #2A1F12",
")%	c #9A9E96",
"!%	c #858982",
"~%	c #0E0F0E",
"{%	c #4C4E4B",
"]%	c #9DA09A",
"^%	c #CFD3CA",
"/%	c #CED2C9",
"(%	c #9B9E97",
"_%	c #4E4D47",
":%	c #0F0D0A",
"<%	c #4C3822",
"[%	c #AC7841",
"}%	c #EEA75B",
"|%	c #906537",
"1%	c #090502",
"2%	c #201408",
"3%	c #6C6E68",
"4%	c #AAAEA6",
"5%	c #0A0B0A",
"6%	c #0D0D0B",
"7%	c #61635E",
"8%	c #ADB1A9",
"9%	c #CCD0C7",
"0%	c #CBD0C6",
"a%	c #BFC4BB",
"b%	c #797C76",
"c%	c #2F2C26",
"d%	c #17130D",
"e%	c #704F2D",
"f%	c #2E2113",
"g%	c #26241F",
"h%	c #090907",
"i%	c #20211F",
"j%	c #72746F",
"k%	c #B9BDB4",
"l%	c #CACEC5",
"m%	c #C8CDC3",
"n%	c #A9ADA4",
"o%	c #5E5F58",
"p%	c #0F0D0B",
"q%	c #020100",
"r%	c #C4C9BF",
"s%	c #222321",
"t%	c #0C0C0B",
"u%	c #82857F",
"v%	c #C0C5BB",
"w%	c #C7CCC2",
"x%	c #C6CBC1",
"y%	c #C2C8BD",
"z%	c #757872",
"A%	c #A6AAA0",
"B%	c #C3C9BE",
"C%	c #4A4C48",
"D%	c #464844",
"E%	c #91958E",
"F%	c #C2C8BE",
"G%	c #C4C9BE",
"H%	c #72756F",
"I%	c #0D0D0C",
"J%	c #595B56",
"K%	c #A0A59C",
"L%	c #C2C7BC",
"M%	c #969B91",
"N%	c #1B1C1A",
"O%	c #61645E",
"                                                                  . +                           ",
"                                                                @ # $                           ",
"                                                              % & * = -                         ",
"                                                          ; > , ' ) ! ~                         ",
"                                                        { ] ^ - / ( ( _                         ",
"                                                      : < [ } | ( ( ( 1       2                 ",
"                                                  % 3 4 5 6 7 ( ( ( ( 8 9   0 + 0               ",
"                                                { a b 5 c d e ( ( ( ( f g h i j k               ",
"                                              : l 5 5 m n o ( ( ( ( p q r s t u v               ",
"                                          w x y 5 5 z A B ( ( ( ( C D E F G H I J               ",
"                                        K L M 5 5 5 N O P ( ( ) Q R S T U V I W X               ",
"                                      Y Z ` 5 5 5  ...+.( ( e @.#.$.T %.&.*.=.-.;.>.            ",
"                                  ,.'.).5 5 5 5 !.} ~.( {.].^./.T T %.%.(._.:.<.[.}.            ",
"                                |.1.!.5 5 5 5 5 6 2.( 3.4.5.6.T T %.%.7.7.8.9.0.a.b.            ",
"                              w c.d.5 5 5 5 5 e.f.g.h.i.j.T T T %.%.7.k.k.l.m.n.:.o.            ",
"                            % p.5 5 5 5 5 q.r.+ s.t.u.v.T T %.%.%.7.k.k.w.x.y.u z.A.            ",
"                        B.C.D.5 5 5 5 E.F.G.H.I.J.K.k.T T %.%.%.7.k.k.w.w.L.M.z.N.O.            ",
"                      P.Q.z 5 5 5 R.S.T.U.V.W.X.Y.Z.7.T %.%.7.7.k.k.w.w.`.`. +.+++@+#+          ",
"                    w $+5 5 5 %+&+*+=+-+;+>+,+'+)+} !+%.%.7.k.k.k.w.w.`.`.~+{+]+^+/+(+          ",
"                _+:+<+5 ` [+}+|+1+2+3+4+5+6+7+8+8+9+0+a+7.k.k.w.w.`.`.`.~+b+c+d+e+f+v           ",
"              _+g+b h+Q.i+j+k+l+m+n+o+p+q+8+8+8+r+r+s+t+u+k.w.w.`.`.~+~+b+v+w+x+y+z+A+          ",
"            Y B+C+D+E+F+G+3+m+m+H+I+J+K+8+8+8+r+r+L+M+N+O+~+w.`.`.~+~+b+v+v+P+Q+R+S+T+          ",
"        U+V+W+X+Y+Z+`+m+m+m+ @.@+@@@K+8+8+8+r+r+L+#@#@$@%@&@`.`.~+b+b+v+v+v+$.*@=@-@;@>@        ",
"      |.,@'@Y+)@!@m+m+m+m+~@{@]@r+7+8+8+r+r+r+L+#@#@^@^@/@(@_@~+b+v+v+v+v+$.:@<@[@}@|@1@        ",
"    + G.*+=+2@m+m+m+m+3@4@5@6@K+8+8+8+r+r+L+L+#@#@^@^@7@7@8@9@0@v+v+v+v+$.:@a@b@c@d@e@f@        ",
"g@*+h@i@j@m+m+m+m+m+k@l@m@^@K+8+8+8+r+r+L+#@#@#@^@^@7@7@'+'+n@o@v+v+v+$.a@a@a@p@Q+q@r@s@        ",
"+ + t@u@m+m+m+m+3+v@5+w@K+K+8+8+r+r+r+L+#@#@^@^@7@7@7@'+x@x@y@z@A@$.:@a@a@a@a@a@B@C@D@E@        ",
"    F@G@H@I@J@K@L@M@N@K+8+8+8+r+r+r+L+#@#@^@^@7@7@7@'+x@O@O@O@P@Q@R@a@a@a@a@S@T@U@V@W@X@v       ",
"          Y@Z@`@ #K+K+8+8+8+r+r+L+L+#@#@^@^@7@7@'+'+x@O@O@O@O@.#+#@###a@a@S@T@T@$#%#&#*#s@      ",
"          =#-#;#>#,#'#)#8+r+r+L+#@#@#@^@^@7@7@'+'+x@O@O@O@O@.#!#!#~#{#]#^#T@T@T@/#(#_#:#<#      ",
"        h [#}#|#1#2#3#4#5#6#L+#@#@^@^@7@7@7@'+x@x@O@O@O@.#N@!#!#!#7#A 8#T@T@T@T@T@9#0#a#b#      ",
"      + c#d#e#}#f#t g#h#i#j#k#l#m#^@7@7@7@'+x@O@O@O@O@.#N@!#!#!#!#n#o#p#q#T@T@T@4+r#s#t#u#      ",
"          v#w#x#y#H I W =.z#A#B#C#D#E#F#'+x@O@O@O@O@.#!#!#!#!#!#n#G#G#H#I#J#K#4+4+L#M#N#O#      ",
"                0 P#Q#R#z#S#0.n.T#U#V#V+W#X#O@O@.#N@!#!#!#!#!#q+G#G#G#G#Y#Z#W.4+4+`# $.$V@<#    ",
"                    >@+$@$#$$$u z.N.++%$&$*$=$-$;$!#!#!#!#!#G#G#G#G#G#G#>$,$'$4+4+)$!$~${$]$    ",
"                          ^$b./$($_$:$^+e+-@=@<$[$}$|$1$n#G#G#G#G#G#G#2$2$3$} 4$5$6$7$8$9$0$    ",
"                                s@>@a$b$c$z+S+-@d$e$f$:+g$h$G#G#G#i$2$2$2$2$j$& k$6$l$m$n$o$    ",
"                                      =#p$q$r$}@s$t$u$v$B#w$x$y$z$2$2$2$2$A$B$C$D$E$F$G$H$I$    ",
"                                          J$h K$L$M$N$D@W@O$P$Q$R$S$T$2$A$B$U$V$W$X$Y$w Z$`$v   ",
"                                                =#b. %.%+%@%_##%$%%%&%*%=%-%U$U$;%>%,%'%)%!%s@  ",
"                                                      ~%+${%]%.$^%/%O$(%_%:%<%[%}%|%1%2%3%4%5%  ",
"                                                            6%}.7%8%O$9%0%a%b%c%d%e%f%+ g%Z$b#  ",
"                                                                h%h i%j%k%l%H$m%n%o%p%q%+ r%s%  ",
"                                                                      t%2 A.u%v%w%x%y%z%A%B%C%  ",
"                                                                            ^$b.D%E%F%G%B%y%H%<#",
"                                                                                  I%k J%K%L%M%^$",
"                                                                                      b.h N%O%+ ",
"                                                                                            <#+ "};
