/* XPM */
static const char * mitkAddThreeDTool_xpm[] = {
"45 45 661 2",
"  	c None",
". 	c #1F7A12",
"+ 	c #2C841F",
"@ 	c #2D8420",
"# 	c #2C8420",
"$ 	c #2C8520",
"% 	c #2A841E",
"& 	c #1F7610",
"* 	c #19760B",
"= 	c #64BA61",
"- 	c #9ED59D",
"; 	c #9DD59C",
"> 	c #9CD59C",
", 	c #9CD59B",
"' 	c #9CD49B",
") 	c #97D396",
"! 	c #51A74B",
"~ 	c #176406",
"{ 	c #0F7705",
"] 	c #65BF65",
"^ 	c #A0D8A0",
"/ 	c #9DD79D",
"( 	c #9CD79C",
"_ 	c #9BD79B",
": 	c #9AD69A",
"< 	c #4DAB49",
"[ 	c #0E6000",
"} 	c #0A7500",
"| 	c #59BB59",
"1 	c #94D494",
"2 	c #90D290",
"3 	c #8FD28F",
"4 	c #8FD18F",
"5 	c #8ED18E",
"6 	c #8DD18D",
"7 	c #43A73F",
"8 	c #0B6000",
"9 	c #0A7700",
"0 	c #56BA56",
"a 	c #8CD08C",
"b 	c #8BD08B",
"c 	c #8ACF8A",
"d 	c #89CF89",
"e 	c #88CE88",
"f 	c #88CF88",
"g 	c #41A73D",
"h 	c #0B6100",
"i 	c #54B853",
"j 	c #8AD08A",
"k 	c #87CE87",
"l 	c #86CE86",
"m 	c #85CD85",
"n 	c #84CD84",
"o 	c #83CD84",
"p 	c #83CD83",
"q 	c #3EA63B",
"r 	c #0A6200",
"s 	c #0A7900",
"t 	c #52B850",
"u 	c #86CE85",
"v 	c #83CD82",
"w 	c #83CD81",
"x 	c #82CC80",
"y 	c #81CC7F",
"z 	c #80CB7F",
"A 	c #80CC7E",
"B 	c #3DA639",
"C 	c #0A6400",
"D 	c #0C7B00",
"E 	c #52B84D",
"F 	c #84CE80",
"G 	c #81CD7D",
"H 	c #81CC7C",
"I 	c #80CC7C",
"J 	c #7FCC7B",
"K 	c #7ECB7A",
"L 	c #7DCC7A",
"M 	c #3DA736",
"N 	c #0A6600",
"O 	c #0E7D00",
"P 	c #53BA4A",
"Q 	c #82CE7B",
"R 	c #7FCC78",
"S 	c #7ECC78",
"T 	c #7ECC77",
"U 	c #7DCC76",
"V 	c #7BCB75",
"W 	c #7CCC75",
"X 	c #3EA834",
"Y 	c #0B6800",
"Z 	c #108000",
"` 	c #53BB47",
" .	c #80CE76",
"..	c #7DCD74",
"+.	c #7DCC73",
"@.	c #7CCC72",
"#.	c #7BCC71",
"$.	c #7ACB70",
"%.	c #7ACC70",
"&.	c #3FAA32",
"*.	c #0B6900",
"=.	c #118200",
"-.	c #54BC44",
";.	c #7ECE71",
">.	c #7CCD6F",
",.	c #7BCD6E",
"'.	c #7ACC6D",
").	c #79CC6C",
"!.	c #78CB6B",
"~.	c #78CC6B",
"{.	c #40AC30",
"].	c #0B6B00",
"^.	c #138500",
"/.	c #55BE41",
"(.	c #7CCE6C",
"_.	c #7ACD6A",
":.	c #79CD69",
"<.	c #79CD68",
"[.	c #78CC67",
"}.	c #77CC66",
"|.	c #76CC66",
"1.	c #41AD2E",
"2.	c #0C6D00",
"3.	c #148600",
"4.	c #56C03E",
"5.	c #7BCF68",
"6.	c #79CD65",
"7.	c #78CD64",
"8.	c #78CD63",
"9.	c #77CD62",
"0.	c #75CC61",
"a.	c #75CD61",
"b.	c #41AF2B",
"c.	c #0A6E00",
"d.	c #0E8404",
"e.	c #218E16",
"f.	c #249019",
"g.	c #259019",
"h.	c #269019",
"i.	c #279019",
"j.	c #289019",
"k.	c #299119",
"l.	c #2A9119",
"m.	c #2B9119",
"n.	c #2A8E19",
"o.	c #27990F",
"p.	c #59C23D",
"q.	c #7ACE62",
"r.	c #78CE60",
"s.	c #77CE5F",
"t.	c #77CE5E",
"u.	c #76CD5D",
"v.	c #75CD5C",
"w.	c #74CD5C",
"x.	c #4AB731",
"y.	c #269014",
"z.	c #2A9219",
"A.	c #2A9319",
"B.	c #299319",
"C.	c #289319",
"D.	c #279319",
"E.	c #269319",
"F.	c #259319",
"G.	c #249319",
"H.	c #239319",
"I.	c #229319",
"J.	c #178F0F",
"K.	c #088600",
"L.	c #087D00",
"M.	c #33A82C",
"N.	c #7ECA77",
"O.	c #84CD7D",
"P.	c #84CD7C",
"Q.	c #86CE7B",
"R.	c #86CF7B",
"S.	c #87CF7A",
"T.	c #88D07A",
"U.	c #88D079",
"V.	c #89D179",
"W.	c #8AD278",
"X.	c #8AD277",
"Y.	c #8BD378",
"Z.	c #84D26E",
"`.	c #74CD58",
" +	c #77CF5C",
".+	c #77CE5B",
"++	c #77CE5A",
"@+	c #76CE59",
"#+	c #75CE58",
"$+	c #74CD57",
"%+	c #73CD56",
"&+	c #7CD063",
"*+	c #87D272",
"=+	c #85D171",
"-+	c #84D070",
";+	c #83CF70",
">+	c #81CE6F",
",+	c #80CD6F",
"'+	c #7ECC6E",
")+	c #7DCC6D",
"!+	c #7BCB6D",
"~+	c #79CA6D",
"{+	c #77C96C",
"]+	c #75C76C",
"^+	c #74C76C",
"/+	c #5EBE58",
"(+	c #189C11",
"_+	c #057E00",
":+	c #0B7E01",
"<+	c #4BB542",
"[+	c #79CB71",
"}+	c #79CB6E",
"|+	c #7BCD6C",
"1+	c #7CCE6B",
"2+	c #7DCE6A",
"3+	c #7DCF69",
"4+	c #7DD068",
"5+	c #7ED068",
"6+	c #7FD167",
"7+	c #7FD166",
"8+	c #7FD265",
"9+	c #80D264",
"0+	c #7FD263",
"a+	c #79D05B",
"b+	c #77D057",
"c+	c #76CF56",
"d+	c #76CF55",
"e+	c #75CF54",
"f+	c #74CF53",
"g+	c #73CE52",
"h+	c #72CD52",
"i+	c #76CF57",
"j+	c #78D05A",
"k+	c #74CE58",
"l+	c #72CD57",
"m+	c #70CB57",
"n+	c #6ECA55",
"o+	c #6CC954",
"p+	c #69C753",
"q+	c #67C653",
"r+	c #64C452",
"s+	c #61C351",
"t+	c #5EC150",
"u+	c #5BBF4F",
"v+	c #58BD4E",
"w+	c #29A620",
"x+	c #057C00",
"y+	c #0B7F02",
"z+	c #48B53D",
"A+	c #6EC762",
"B+	c #6EC75F",
"C+	c #6FC85E",
"D+	c #70C95D",
"E+	c #71CB5C",
"F+	c #72CC5B",
"G+	c #72CC5A",
"H+	c #74CD5A",
"I+	c #74CE59",
"J+	c #76D055",
"K+	c #76D054",
"L+	c #76D053",
"M+	c #76D052",
"N+	c #76D051",
"O+	c #75D050",
"P+	c #74D04F",
"Q+	c #73CF4D",
"R+	c #71CF4C",
"S+	c #70CE4B",
"T+	c #6ECD4A",
"U+	c #6CCC49",
"V+	c #6ACB48",
"W+	c #68CA47",
"X+	c #66C947",
"Y+	c #63C745",
"Z+	c #61C644",
"`+	c #5EC443",
" @	c #5CC343",
".@	c #59C142",
"+@	c #55BF41",
"@@	c #52BD40",
"#@	c #4FBB3F",
"$@	c #4CBA3F",
"%@	c #29A61D",
"&@	c #067C00",
"*@	c #0B8102",
"=@	c #47B639",
"-@	c #6BC75C",
";@	c #6BC75A",
">@	c #6CC859",
",@	c #6ECA58",
"'@	c #6FCB57",
")@	c #70CC56",
"!@	c #71CC55",
"~@	c #72CD54",
"{@	c #73CE53",
"]@	c #74CF52",
"^@	c #74CF51",
"/@	c #76D14F",
"(@	c #76D14E",
"_@	c #75D14D",
":@	c #75D14C",
"<@	c #75D14B",
"[@	c #74D14A",
"}@	c #73D149",
"|@	c #72D049",
"1@	c #71D048",
"2@	c #6FCF46",
"3@	c #6DCE45",
"4@	c #6BCD44",
"5@	c #69CC43",
"6@	c #67CB42",
"7@	c #65C941",
"8@	c #62C840",
"9@	c #60C63F",
"0@	c #5DC53E",
"a@	c #5AC33D",
"b@	c #57C13C",
"c@	c #54BF3B",
"d@	c #50BE3A",
"e@	c #4DBB39",
"f@	c #4ABA39",
"g@	c #29A81B",
"h@	c #067E00",
"i@	c #0F8406",
"j@	c #60C052",
"k@	c #88D27A",
"l@	c #88D278",
"m@	c #89D477",
"n@	c #8AD576",
"o@	c #8BD576",
"p@	c #8CD675",
"q@	c #8DD774",
"r@	c #8DD873",
"s@	c #8ED872",
"t@	c #8FD972",
"u@	c #90D971",
"v@	c #90DA71",
"w@	c #88D865",
"x@	c #76D24C",
"y@	c #75D34A",
"z@	c #75D349",
"A@	c #75D347",
"B@	c #74D346",
"C@	c #74D245",
"D@	c #72D244",
"E@	c #71D142",
"F@	c #7CD453",
"G@	c #8AD867",
"H@	c #89D866",
"I@	c #87D765",
"J@	c #85D664",
"K@	c #83D564",
"L@	c #81D463",
"M@	c #7FD262",
"N@	c #7CD161",
"O@	c #7AD060",
"P@	c #77CE60",
"Q@	c #75CC5F",
"R@	c #72CB5E",
"S@	c #70C95E",
"T@	c #63C452",
"U@	c #2BAA1B",
"V@	c #058000",
"W@	c #138709",
"X@	c #62C04B",
"Y@	c #82CF67",
"Z@	c #82D065",
"`@	c #83D164",
" #	c #85D364",
".#	c #87D563",
"+#	c #88D663",
"@#	c #89D762",
"##	c #8AD861",
"$#	c #8BD961",
"%#	c #8CD960",
"&#	c #8CDA5F",
"*#	c #8DDA5F",
"=#	c #88D858",
"-#	c #76D343",
";#	c #76D444",
">#	c #76D443",
",#	c #75D443",
"'#	c #75D442",
")#	c #74D441",
"!#	c #74D340",
"~#	c #72D33F",
"{#	c #71D23E",
"]#	c #80D652",
"^#	c #88D859",
"/#	c #87D857",
"(#	c #85D856",
"_#	c #84D755",
":#	c #83D655",
"<#	c #81D554",
"[#	c #7ED353",
"}#	c #7CD253",
"|#	c #7AD053",
"1#	c #78CF52",
"2#	c #74CD51",
"3#	c #71CB51",
"4#	c #6EC850",
"5#	c #66C449",
"6#	c #2EAB18",
"7#	c #068100",
"8#	c #138501",
"9#	c #40AA07",
"0#	c #4EB309",
"a#	c #52B709",
"b#	c #55BB08",
"c#	c #58BE08",
"d#	c #5CC208",
"e#	c #5EC408",
"f#	c #60C608",
"g#	c #62C808",
"h#	c #63C908",
"i#	c #62C908",
"j#	c #61C707",
"k#	c #68CD20",
"l#	c #74D43D",
"m#	c #76D53E",
"n#	c #75D53E",
"o#	c #75D53C",
"p#	c #74D53B",
"q#	c #72D439",
"r#	c #71D439",
"s#	c #6CD02F",
"t#	c #61C70C",
"u#	c #60C706",
"v#	c #62C806",
"w#	c #62C906",
"x#	c #61C806",
"y#	c #5FC706",
"z#	c #5EC506",
"A#	c #5CC306",
"B#	c #59C006",
"C#	c #55BC06",
"D#	c #51B906",
"E#	c #4EB506",
"F#	c #4AB105",
"G#	c #34A603",
"H#	c #0B8300",
"I#	c #138400",
"J#	c #379F00",
"K#	c #3FA500",
"L#	c #43A900",
"M#	c #46AD00",
"N#	c #4AB000",
"O#	c #4CB300",
"P#	c #4FB500",
"Q#	c #50B700",
"R#	c #52B900",
"S#	c #53BA00",
"T#	c #51B800",
"U#	c #51C104",
"V#	c #68D327",
"W#	c #77D73A",
"X#	c #76D739",
"Y#	c #76D737",
"Z#	c #75D736",
"`#	c #74D636",
" $	c #73D635",
".$	c #72D534",
"+$	c #5FCD1A",
"@$	c #50B900",
"#$	c #52BA00",
"$$	c #4EB400",
"%$	c #4CB200",
"&$	c #49AF00",
"*$	c #46AC00",
"=$	c #42A800",
"-$	c #3FA400",
";$	c #319D00",
">$	c #0E8100",
",$	c #2C9400",
"'$	c #349900",
")$	c #379C00",
"!$	c #3AA000",
"~$	c #3DA200",
"{$	c #41A700",
"]$	c #42A900",
"^$	c #44AA00",
"/$	c #45AB00",
"($	c #4ABB00",
"_$	c #68D421",
":$	c #78D835",
"<$	c #77D933",
"[$	c #76D933",
"}$	c #76D832",
"|$	c #75D831",
"1$	c #74D830",
"2$	c #73D72F",
"3$	c #5ECC15",
"4$	c #44AC00",
"5$	c #43AA00",
"6$	c #44AB00",
"7$	c #40A600",
"8$	c #3EA400",
"9$	c #3CA200",
"0$	c #399F00",
"a$	c #369B00",
"b$	c #339700",
"c$	c #269400",
"d$	c #088000",
"e$	c #128000",
"f$	c #178300",
"g$	c #198500",
"h$	c #1A8700",
"i$	c #1B8700",
"j$	c #1D8900",
"k$	c #1D8A00",
"l$	c #1E8A00",
"m$	c #1F8B00",
"n$	c #34AB00",
"o$	c #6AD61D",
"p$	c #78DA30",
"q$	c #78DA2F",
"r$	c #77DB2D",
"s$	c #77DB2C",
"t$	c #76DA2C",
"u$	c #75DA2B",
"v$	c #74D92A",
"w$	c #58C913",
"x$	c #229500",
"y$	c #1E8B00",
"z$	c #1F8C00",
"A$	c #1E8C00",
"B$	c #1D8B00",
"C$	c #1C8A00",
"D$	c #1A8900",
"E$	c #198800",
"F$	c #188700",
"G$	c #168600",
"H$	c #279D00",
"I$	c #6BD71A",
"J$	c #79DC2B",
"K$	c #79DC2A",
"L$	c #78DC29",
"M$	c #78DC28",
"N$	c #77DC27",
"O$	c #76DC26",
"P$	c #75DC26",
"Q$	c #54C810",
"R$	c #0C7600",
"S$	c #2BA500",
"T$	c #65D80A",
"U$	c #6EDB12",
"V$	c #6FDC14",
"W$	c #71DC15",
"X$	c #72DD16",
"Y$	c #71DD17",
"Z$	c #71DC18",
"`$	c #71DC17",
" %	c #54CA0A",
".%	c #0F8400",
"+%	c #2EA800",
"@%	c #63D900",
"#%	c #67DB00",
"$%	c #68DC00",
"%%	c #69DD00",
"&%	c #69DC00",
"*%	c #68DC01",
"=%	c #51CB00",
"-%	c #108900",
";%	c #2FAA00",
">%	c #6CDF00",
",%	c #6EDF00",
"'%	c #6EE000",
")%	c #6DDF00",
"!%	c #55CE00",
"~%	c #108B00",
"{%	c #31AD00",
"]%	c #71E200",
"^%	c #73E300",
"/%	c #74E300",
"(%	c #72E200",
"_%	c #58D000",
":%	c #118D00",
"<%	c #32AF00",
"[%	c #76E500",
"}%	c #78E600",
"|%	c #79E700",
"1%	c #78E700",
"2%	c #77E600",
"3%	c #76E600",
"4%	c #5BD400",
"5%	c #118E00",
"6%	c #34B200",
"7%	c #7BE800",
"8%	c #7DEA00",
"9%	c #7EEA00",
"0%	c #7CE900",
"a%	c #7BE900",
"b%	c #5FD600",
"c%	c #119000",
"d%	c #36B300",
"e%	c #7AE800",
"f%	c #7FEC00",
"g%	c #81ED00",
"h%	c #82EE00",
"i%	c #82ED00",
"j%	c #80EC00",
"k%	c #62D800",
"l%	c #37B400",
"m%	c #80EA07",
"n%	c #8AEF0E",
"o%	c #8CF00E",
"p%	c #8EF10E",
"q%	c #8DF10E",
"r%	c #8BF00E",
"s%	c #89EF0E",
"t%	c #68DA06",
"u%	c #129000",
"v%	c #38AB14",
"w%	c #A7E66B",
"x%	c #BDF183",
"y%	c #BFF382",
"z%	c #C0F382",
"A%	c #BEF183",
"B%	c #8DD95D",
"C%	c #17900C",
"D%	c #31A316",
"E%	c #92D55E",
"F%	c #A6E26C",
"G%	c #ABE86B",
"H%	c #AEEB6B",
"I%	c #AFEB6B",
"J%	c #ABE76B",
"K%	c #A6E16C",
"L%	c #7ACB51",
"M%	c #148D0C",
"N%	c #1F9900",
"O%	c #50B506",
"P%	c #5FC209",
"Q%	c #67CB09",
"R%	c #6DD209",
"S%	c #6FD409",
"T%	c #6DD109",
"U%	c #67CA09",
"V%	c #5FC109",
"W%	c #41B006",
"X%	c #0A8800",
"Y%	c #199300",
"Z%	c #3FA600",
"`%	c #4BB000",
" &	c #57BE00",
".&	c #59C000",
"+&	c #52B800",
"@&	c #34A400",
"#&	c #098600",
"$&	c #0C8700",
"%&	c #269900",
"&&	c #30A100",
"*&	c #35A600",
"=&	c #38AA00",
"-&	c #39AB00",
";&	c #30A000",
">&	c #1F9700",
",&	c #036700",
"'&	c #056B00",
")&	c #066C00",
"!&	c #035F00",
"                                                                                          ",
"                                                                                          ",
"                                                                                          ",
"                                    . + @ # # # $ % &                                     ",
"                                  * = - - ; > , ' ) ! ~                                   ",
"                                  { ] ^ / ( _ : : : < [                                   ",
"                                  } | 1 2 3 4 5 6 6 7 8                                   ",
"                                  9 0 4 a b c d e f g h                                   ",
"                                  9 i j k l m n o p q r                                   ",
"                                  s t u v w x y z A B C                                   ",
"                                  D E F G H I J K L M N                                   ",
"                                  O P Q R S T U V W X Y                                   ",
"                                  Z `  ...+.@.#.$.%.&.*.                                  ",
"                                  =.-.;.>.,.'.).!.~.{.].                                  ",
"                                  ^./.(._.:.<.[.}.|.1.2.                                  ",
"                                  3.4.5.6.7.8.9.0.a.b.c.                                  ",
"      d.e.f.g.h.i.j.j.k.k.l.l.m.n.o.p.q.r.s.t.u.v.w.x.y.z.A.B.C.C.D.E.E.F.G.H.I.J.K.      ",
"    L.M.N.O.P.Q.R.S.T.U.V.W.W.X.Y.Z.`. +.+++@+#+$+%+&+*+=+-+;+>+,+'+)+!+~+{+]+^+/+(+_+    ",
"    :+<+[+}+'.|+1+2+3+4+5+6+7+8+9+0+a+b+c+d+e+f+g+h+i+j+@+k+l+m+n+o+p+q+r+s+t+u+v+w+x+    ",
"    y+z+A+B+C+D+E+F+G+H+I+#+c+c+J+K+L+M+N+O+O+P+Q+R+S+T+U+V+W+X+Y+Z+`+ @.@+@@@#@$@%@&@    ",
"    *@=@-@;@>@,@'@)@!@~@{@]@^@O+O+/@(@_@:@<@[@}@|@1@2@3@4@5@6@7@8@9@0@a@b@c@d@e@f@g@h@    ",
"    i@j@k@l@m@n@o@p@q@r@s@t@u@v@w@x@y@z@A@B@B@C@D@E@F@G@H@I@J@K@L@M@N@O@P@Q@R@S@T@U@V@    ",
"    W@X@Y@Z@`@ #.#+#@###$#%#&#*#=#-#;#>#,#'#)#!#~#{#]#^#/#(#_#:#<#[#}#|#1#2#3#4#5#6#7#    ",
"    8#9#0#a#b#c#d#e#f#g#h#h#h#i#j#k#l#m#n#o#o#p#q#r#s#t#u#v#w#w#x#y#z#A#B#C#D#E#F#G#H#    ",
"    I#J#K#L#M#N#O#P#Q#R#S#S#S#R#T#U#V#W#X#Y#Z#`# $.$+$@$T#R#S#S##$T#Q#$$%$&$*$=$-$;$H#    ",
"    >$,$'$)$!$~$K#{$]$^$/$/$/$^$L#($_$:$<$[$}$|$1$2$3$4$5$6$/$/$6$5$=$7$8$9$0$a$b$c$d$    ",
"      e$f$g$h$i$j$k$l$m$m$m$m$m$l$n$o$p$q$r$s$t$u$v$w$x$y$z$z$z$A$A$B$B$C$D$E$F$G$>$      ",
"                                  H$I$J$K$L$M$N$O$P$Q$R$                                  ",
"                                  S$T$U$V$W$X$Y$Z$`$ %.%                                  ",
"                                  +%@%#%$%%%%%&%*%*%=%-%                                  ",
"                                  ;%$%>%,%'%'%'%)%)%!%~%                                  ",
"                                  {%)%]%^%^%/%^%(%(%_%:%                                  ",
"                                  <%]%[%}%|%|%1%2%3%4%5%                                  ",
"                                  6%[%7%8%9%9%8%0%a%b%c%                                  ",
"                                  d%e%f%g%h%h%i%j%f%k%c%                                  ",
"                                  l%m%n%o%p%p%q%r%s%t%u%                                  ",
"                                  v%w%x%y%z%z%z%y%A%B%C%                                  ",
"                                  D%E%F%G%H%I%H%J%K%L%M%                                  ",
"                                  N%O%P%Q%R%S%T%U%V%W%X%                                  ",
"                                  Y%Z%`%R# &.& &+&`%@&#&                                  ",
"                                  $&%&&&*&=&-&=&*&;&>&                                    ",
"                                    ,&'&)&)&)&)&)&'&!&                                    ",
"                                                                                          ",
"                                                                                          ",
"                                                                                          "};
