/* XPM */
static const char * mitkTestTool_xpm[] = {
"50 33 101 2",
"  	g #FFFFFF",
". 	g #F7F7F7",
"+ 	g #FAFAFA",
"@ 	g #FDFDFD",
"# 	g #F6F6F6",
"$ 	g #FEFEFE",
"% 	g #FCFCFC",
"& 	g #FBFBFB",
"* 	g #F8F8F8",
"= 	g #F3F3F3",
"- 	g #F9F9F9",
"; 	g #F2F2F2",
"> 	g #F1F1F1",
", 	g #EEEEEE",
"' 	g #F5F5F5",
") 	g #F4F4F4",
"! 	g #EAEAEA",
"~ 	g #EFEFEF",
"{ 	g #F0F0F0",
"] 	g #B9B9B9",
"^ 	g #828282",
"/ 	g #7A7A7A",
"( 	g #808080",
"_ 	g #838383",
": 	g #575757",
"< 	g #C5C5C5",
"[ 	g #767676",
"} 	g #7B7B7B",
"| 	g #7E7E7E",
"1 	g #848484",
"2 	g #686868",
"3 	g #D6D6D6",
"4 	g #717171",
"5 	g #6F6F6F",
"6 	g #7D7D7D",
"7 	g #777777",
"8 	g #B6B6B6",
"9 	g #5A5A5A",
"0 	g #000000",
"a 	g #010101",
"b 	g #030303",
"c 	g #020202",
"d 	g #757575",
"e 	g #040404",
"f 	g #6A6A6A",
"g 	g #050505",
"h 	g #0C0C0C",
"i 	g #101010",
"j 	g #C7C7C7",
"k 	g #A2A2A2",
"l 	g #0D0D0D",
"m 	g #414141",
"n 	g #949494",
"o 	g #555555",
"p 	g #676767",
"q 	g #070707",
"r 	g #C1C1C1",
"s 	g #A0A0A0",
"t 	g #999999",
"u 	g #8B8B8B",
"v 	g #D3D3D3",
"w 	g #B0B0B0",
"x 	g #9A9A9A",
"y 	g #0F0F0F",
"z 	g #A3A3A3",
"A 	g #818181",
"B 	g #454545",
"C 	g #0B0B0B",
"D 	g #979797",
"E 	g #BFBFBF",
"F 	g #080808",
"G 	g #AAAAAA",
"H 	g #B2B2B2",
"I 	g #747474",
"J 	g #DADADA",
"K 	g #C3C3C3",
"L 	g #8D8D8D",
"M 	g #060606",
"N 	g #8F8F8F",
"O 	g #909090",
"P 	g #393939",
"Q 	g #858585",
"R 	g #626262",
"S 	g #191919",
"T 	g #888888",
"U 	g #212121",
"V 	g #3D3D3D",
"W 	g #9B9B9B",
"X 	g #7C7C7C",
"Y 	g #707070",
"Z 	g #9D9D9D",
"` 	g #0E0E0E",
" .	g #090909",
"..	g #6B6B6B",
"+.	g #5F5F5F",
"@.	g #5E5E5E",
"#.	g #989898",
"$.	g #2C2C2C",
"%.	g #2B2B2B",
"&.	g #969696",
"*.	g #696969",
"                                                                                                    ",
"                                                                                                    ",
"                                                                                                    ",
"                                                                                                    ",
"                                                                                                    ",
"                                                                                                    ",
"                                                                                                    ",
"                                                                                                    ",
"                .     +     @     #   $ .     %   &   @ @   &       *       #   % $ @       &       ",
"                $   % * @   $   =   $     % @       # $   *     $ +       -         - -     &       ",
"                              %     -   %     @     @     $ @ @   & $   & $   % -     % @ @         ",
"                $ ; -   & @       >     ,     &   -   - .   #   @ @ ;   '   & $ +     @ $ % * +     ",
"                  %     ' #   $ + * @   *     @ *       $     % &         @ )       . *       $     ",
"                ' -           + -   ! ;   &     +   ' % & )   & # - % ~         $   + . + # ' $     ",
"                    @ = +     %   -       #   @   ' .       + &         {     @ % % %               ",
"                  ) ] ^ / ^ ( ( _ : > < [ } | 1 ( 2 3 )   ; 4 5 &   #   2 ( 6 1 1 7 ( 8 )   @ +     ",
"                $ $ 9 0 a b 0 a c 0   d b 0 e 0 e 0 f * b 0 0 e g 0     0 h 0 0 0 i 0 9   >   -     ",
"                  = j 7 k 0 l m n o   p 0 q r s t u v k 0 0 w x 0 y z   f A B C g D | E @ $   %     ",
"                  +   ,   0 F _   +   | 0 0 8 G H I   J 0 0 K - +   & #     L 0 a & ;   *   @       ",
"                &   +   @ M 0 N &   + 6 c q b 0 e 0 -   O a C q a P     %   Q e 0     $   % @       ",
"                + $   '   a 0 6     % 6 b 0 x _ f p     - >   R y 0 S *   , T 0 b & - ~   - & %     ",
"                  $   *   c b ( =   & A M a       +   U b V &   W 0 M   '   T 0 0     &     &       ",
"                    @   # g 0 X   #   Y 0 0 0 0 0 F | Z ` 0 0 e 0  ...+   # I M 0       &           ",
"                % )     $ 0 0 R     ; +.C b c 0 c 0 @.  #.$.C 0 %.&.    @ % *.0 M & @ +   $   &     ",
"                                                                                                    ",
"                                                                                                    ",
"                                                                                                    ",
"                                                                                                    ",
"                                                                                                    ",
"                                                                                                    ",
"                                                                                                    ",
"                                                                                                    ",
"                                                                                                    "};
