/* XPM */
static const char * mitkDragTool_xpm[] = {
"40 20 8 1",
" 	c #FFFFFF",
".	c #000000",
"+	c #010101",
"@	c #070707",
"#	c #0B0B0B",
"$	c #1A1A1A",
"%	c #1E1E1E",
"&	c #111111",
"                                        ",
"        ..                              ",
"    .. .  ...                           ",
"   .  ..  .  .                          ",
"   .  ..  .  . .          .. .. ..      ",
"    .  .  .  .. .        .  .  .  ..    ",
"    .  .  .  .  .        .        . .   ",
"  .. .       .  .         .         .   ",
" .  ..          .        ..         .   ",
" .   .         .        .           .   ",
"  .            .        .          .    ",
"   .           .         .         .    ",
"   .          .           .       .     ",
"    .         +            .      .     ",
"     +       %             .      .     ",
"      &      $                          ",
"      @      #                          ",
"                                        ",
"                                        ",
"                                        "};
